<?xml version="1.0" encoding="utf-8"?>
<!DOCTYPE svg PUBLIC "-//W3C//DTD SVG 1.1//EN" "http://www.w3.org/Graphics/SVG/1.1/DTD/svg11.dtd">
<svg xmlns="http://www.w3.org/2000/svg" xmlns:xlink="http://www.w3.org/1999/xlink"
     x="0px"
     y="0px"
     viewBox="-0.637 479.511 190.433 132.119"
     enable-background="new -0.637 479.511 190.433 132.119" xml:space="preserve">
        <path fill="#EFFFEF" d="M189.343,491.939c0-2.7,0.2-4.5,0.398-5.5c0.2-1,0.302-1.7,0-2.2c-0.398-0.8-1.198-1.4-2.6-2
            c-0.9-0.4-3.6-1.1-3.9-1.1c-8.6,0.4-18.898,0.7-31.1,0.9c-12.101,0.2-25.399,0.3-39.899,0.3s-29.899-0.1-46.101-0.4
            c-16.2-0.3-32.8-0.6-49.6-1.1c-4-0.1-6.7-0.3-8.1-0.6c-1.4-0.3-2.5-0.3-3.2-0.1c-0.7,0.3-2.3,1.7-2.3,1.8c-0.6,0.3-1,0.8-1.4,1.6
            c-0.2,0.5-0.4,1.4-0.6,2.5c-0.1,0.5-0.2,0.9-0.1,1.3c0,0.3,0,0.5-0.1,0.8c-0.1,2.3-0.2,5.6-0.1,9.9s0.2,10.1,0.4,17.3
            c0.2,4.6,0.3,9.9,0.3,15.7c0,5.9,0.1,11.8,0,17.9c0,6.1-0.1,12.199-0.2,18.1c-0.1,6-0.2,11.5-0.3,16.4c-0.1,4.898-0.2,9.1-0.3,12.5
            c-0.1,3.398-0.2,5.5-0.2,6.5c-0.1,1-0.2,1.8-0.3,2.6c-0.1,0.7,0,1.2,0.1,1.5c0.3,0.5,2.1,2.1,3,2.5c1.1,0.5,3.4,0.9,6.8,1.1
            c3.4,0.2,8.3,0.302,14.7,0.2c6.4-0.1,15-0.3,25.9-0.6c7-0.2,14.8-0.3,23.5-0.4c8.701,0,17.701,0,26.8,0s18.1,0.102,27,0.3
            c8.898,0.2,17,0.302,24.398,0.5c7.301,0.102,13.5,0.302,18.602,0.4c5,0.2,8.199,0.3,9.6,0.3c1.4,0.2,2.7,0.3,3.8,0.4
            c1.102,0.1,1.802,0.1,2.302-0.102c1.198-0.5,1.898-1.3,2.198-2.398c0.102-0.5,0.302-1.3,0.4-2.4c0.1-0.898,0.2-2.8,0.2-3
            c-0.3-5.7-0.602-12.6-0.7-20.7c-0.2-8.1-0.2-17-0.3-26.699c0-9.699,0-20,0.2-30.899C188.742,514.339,188.942,503.24,189.343,491.939
            z M152.143,601.04c-12.1,0.2-25.4,0.3-39.9,0.3s-29.898-0.1-46.1-0.398c-16.2-0.302-32.8-0.602-49.6-1.102c-4-0.1-6.7-0.3-8.1-0.6
            c-0.1,0-0.1,0-0.2,0c-0.2-4.8-0.4-10.2-0.5-16.4c-0.2-8.1-0.2-17-0.3-26.7c0-9.699,0-20,0.2-30.898c0.2-10.9,0.4-22,0.8-33.3
            c0-0.2,0-0.5,0-0.7c0.5,0,1,0.1,1.5,0.1c3.4,0.2,8.3,0.3,14.7,0.2s15-0.3,25.9-0.6c7-0.2,14.8-0.3,23.5-0.4c8.7,0,17.7,0,26.8,0
            c9.1,0,18.1,0.1,27,0.3c8.899,0.2,17,0.3,24.399,0.5c7.301,0.1,13.5,0.3,18.601,0.4c5,0.2,8.2,0.3,9.6,0.3c0.3,0,0.601,0.1,0.8,0.1
            c0,1.7,0,3.7,0,6c0.102,4.3,0.2,10.1,0.4,17.3c0.2,4.6,0.3,9.9,0.3,15.701c0,5.899,0.102,11.801,0,17.899
            c0,6.101-0.1,12.2-0.2,18.101c-0.1,6-0.198,11.5-0.3,16.399c-0.1,4.9-0.2,9.1-0.3,12.5c-0.1,1.6-0.1,3-0.1,4
            C173.043,600.639,163.343,600.94,152.143,601.04z"/>
    <path fill="#EFFFEF" d="M163.543,522.74c-0.801-0.101-1.801-0.2-2.9-0.3c-1.1,0-3.5-0.102-7.4-0.2c-3.898-0.101-8.6-0.2-14.199-0.3
            c-5.601-0.102-11.899-0.2-18.699-0.4c-6.801-0.1-13.7-0.2-20.7-0.3c-7,0-13.8,0-20.5,0s-12.7,0.1-18,0.3c-8.3,0.2-14.9,0.4-19.8,0.4
            c-4.9,0.1-8.7,0-11.3-0.102c-2.6-0.199-4.4-0.4-5.2-0.8c-0.9-0.4-1.4-0.9-1.7-1.5c-0.3-0.9-0.1-2,0.7-3.5c0.8-1.4,1.7-2.3,2.6-2.7
            c0.6-0.2,1.4-0.2,2.5,0c1.1,0.3,3.1,0.4,6.2,0.5c12.9,0.4,25.5,0.6,38,0.8c12.399,0.2,24.2,0.3,35.3,0.3
            c11.102,0,21.301-0.1,30.602-0.2c9.3-0.1,17.199-0.4,23.8-0.7c0.3,0,0.6,0.2,1,0.4c0.399,0.3,0.899,0.6,1.3,0.9
            c0.5,0.3,0.9,0.7,1.3,1c0.4,0.3,0.601,0.6,0.7,0.7c0.2,0.5,0.2,1.1,0.2,2c-0.101,0.8-0.2,1.4-0.3,1.8c-0.2,0.9-0.7,1.5-1.602,1.801
            C164.942,522.74,164.343,522.839,163.543,522.74L163.543,522.74z"/>
    <path fill="#EFFFEF" d="M163.543,550.339c-0.801-0.1-1.801-0.2-2.9-0.3c-1.1,0-3.5-0.1-7.4-0.2c-3.898-0.1-8.6-0.2-14.199-0.3
            c-5.601-0.1-11.899-0.2-18.699-0.4c-6.801-0.1-13.7-0.199-20.7-0.3c-7,0-13.8,0-20.5,0s-12.7,0.101-18,0.3
            c-8.3,0.2-14.9,0.4-19.8,0.4c-4.9,0.1-8.7,0-11.3-0.1c-2.6-0.2-4.4-0.4-5.2-0.801c-0.9-0.399-1.4-0.899-1.7-1.5
            c-0.3-0.899-0.1-2,0.7-3.5c0.8-1.399,1.7-2.301,2.6-2.699c0.6-0.2,1.4-0.2,2.5,0c1.1,0.3,3.1,0.398,6.2,0.398
            c12.9,0.4,25.5,0.602,38,0.801c12.399,0.199,24.2,0.301,35.3,0.301c11.102,0,21.301-0.102,30.602-0.2c9.3-0.101,17.199-0.4,23.8-0.7
            c0.3,0,0.6,0.2,1,0.4c0.399,0.299,0.899,0.6,1.3,0.898c0.5,0.301,0.9,0.7,1.3,1c0.4,0.301,0.601,0.602,0.7,0.7
            c0.2,0.5,0.2,1.101,0.2,2c-0.101,0.8-0.2,1.399-0.3,1.8c-0.2,0.898-0.7,1.5-1.602,1.801
            C164.942,550.339,164.343,550.339,163.543,550.339L163.543,550.339z"/>
    <path fill="#EFFFEF" d="M163.543,578.44c-0.801-0.102-1.801-0.2-2.9-0.301c-1.1,0-3.5-0.101-7.4-0.199
            c-3.898-0.102-8.6-0.2-14.199-0.301c-5.601-0.101-11.899-0.199-18.699-0.399c-6.801-0.101-13.7-0.2-20.7-0.3c-7,0-13.8,0-20.5,0
            s-12.7,0.1-18,0.3c-8.3,0.2-14.9,0.399-19.8,0.399c-4.9,0.101-8.7,0-11.3-0.101c-2.6-0.2-4.4-0.399-5.2-0.8
            c-0.9-0.4-1.4-0.9-1.7-1.5c-0.3-0.9-0.1-2,0.7-3.5c0.8-1.4,1.7-2.301,2.6-2.7c0.6-0.2,1.4-0.2,2.5,0c1.1,0.3,3.1,0.399,6.2,0.399
            c12.9,0.399,25.5,0.601,38,0.801c12.399,0.199,24.2,0.3,35.3,0.3c11.102,0,21.301-0.101,30.602-0.2c9.3-0.1,17.199-0.398,23.8-0.699
            c0.3,0,0.6,0.199,1,0.399c0.399,0.3,0.899,0.601,1.3,0.899c0.5,0.299,0.9,0.699,1.3,1c0.4,0.299,0.601,0.601,0.7,0.699
            c0.2,0.5,0.2,1.102,0.2,2c-0.101,0.801-0.2,1.4-0.3,1.801c-0.2,0.899-0.7,1.5-1.602,1.799
            C164.942,578.54,164.343,578.54,163.543,578.44L163.543,578.44z"/>
        </svg>
