<svg enable-background="new -0.637 479.511 190.433 132.119" viewBox="-.637 479.511 190.433 132.119" xmlns="http://www.w3.org/2000/svg"><g fill="#efffef"><path d="m189.343 491.939c0-2.7.2-4.5.398-5.5.2-1 .302-1.7 0-2.2-.398-.8-1.198-1.4-2.6-2-.9-.4-3.6-1.1-3.9-1.1-8.6.4-18.898.7-31.1.9-12.101.2-25.399.3-39.899.3s-29.899-.1-46.101-.4c-16.2-.3-32.8-.6-49.6-1.1-4-.1-6.7-.3-8.1-.6s-2.5-.3-3.2-.1c-.7.3-2.3 1.7-2.3 1.8-.6.3-1 .8-1.4 1.6-.2.5-.4 1.4-.6 2.5-.1.5-.2.9-.1 1.3 0 .3 0 .5-.1.8-.1 2.3-.2 5.6-.1 9.9s.2 10.1.4 17.3c.2 4.6.3 9.9.3 15.7 0 5.9.1 11.8 0 17.9 0 6.1-.1 12.199-.2 18.1-.1 6-.2 11.5-.3 16.4-.1 4.898-.2 9.1-.3 12.5-.1 3.398-.2 5.5-.2 6.5-.1 1-.2 1.8-.3 2.6-.1.7 0 1.2.1 1.5.3.5 2.1 2.1 3 2.5 1.1.5 3.4.9 6.8 1.1s8.3.302 14.7.2c6.4-.1 15-.3 25.9-.6 7-.2 14.8-.3 23.5-.4h26.8s18.1.102 27 .3c8.898.2 17 .302 24.398.5 7.301.102 13.5.302 18.602.4 5 .2 8.199.3 9.6.3 1.4.2 2.7.3 3.8.4 1.102.1 1.802.1 2.302-.102 1.198-.5 1.898-1.3 2.198-2.398.102-.5.302-1.3.4-2.4.1-.898.2-2.8.2-3-.3-5.7-.602-12.6-.7-20.7-.2-8.1-.2-17-.3-26.699 0-9.699 0-20 .2-30.899.201-10.702.401-21.801.802-33.102zm-37.2 109.101c-12.1.2-25.4.3-39.9.3s-29.898-.1-46.1-.398c-16.2-.302-32.8-.602-49.6-1.102-4-.1-6.7-.3-8.1-.6-.1 0-.1 0-.2 0-.2-4.8-.4-10.2-.5-16.4-.2-8.1-.2-17-.3-26.7 0-9.699 0-20 .2-30.898.2-10.9.4-22 .8-33.3 0-.2 0-.5 0-.7.5 0 1 .1 1.5.1 3.4.2 8.3.3 14.7.2s15-.3 25.9-.6c7-.2 14.8-.3 23.5-.4h26.8c9.1 0 18.1.1 27 .3 8.899.2 17 .3 24.399.5 7.301.1 13.5.3 18.601.4 5 .2 8.2.3 9.6.3.3 0 .601.1.8.1v6c.102 4.3.2 10.1.4 17.3.2 4.6.3 9.9.3 15.701 0 5.899.102 11.801 0 17.899 0 6.101-.1 12.2-.2 18.101-.1 6-.198 11.5-.3 16.399-.1 4.9-.2 9.1-.3 12.5-.1 1.6-.1 3-.1 4-8 .597-17.7.898-28.9.998z"/><path d="m163.543 522.74c-.801-.101-1.801-.2-2.9-.3-1.1 0-3.5-.102-7.4-.2-3.898-.101-8.6-.2-14.199-.3-5.601-.102-11.899-.2-18.699-.4-6.801-.1-13.7-.2-20.7-.3-7 0-13.8 0-20.5 0s-12.7.1-18 .3c-8.3.2-14.9.4-19.8.4-4.9.1-8.7 0-11.3-.102-2.6-.199-4.4-.4-5.2-.8-.9-.4-1.4-.9-1.7-1.5-.3-.9-.1-2 .7-3.5.8-1.4 1.7-2.3 2.6-2.7.6-.2 1.4-.2 2.5 0 1.1.3 3.1.4 6.2.5 12.9.4 25.5.6 38 .8 12.399.2 24.2.3 35.3.3 11.102 0 21.301-.1 30.602-.2 9.3-.1 17.199-.4 23.8-.7.3 0 .6.2 1 .4.399.3.899.6 1.3.9.5.3.9.7 1.3 1s.601.6.7.7c.2.5.2 1.1.2 2-.101.8-.2 1.4-.3 1.8-.2.9-.7 1.5-1.602 1.801-.503.101-1.102.2-1.902.101z"/><path d="m163.543 550.339c-.801-.1-1.801-.2-2.9-.3-1.1 0-3.5-.1-7.4-.2-3.898-.1-8.6-.2-14.199-.3-5.601-.1-11.899-.2-18.699-.4-6.801-.1-13.7-.199-20.7-.3-7 0-13.8 0-20.5 0s-12.7.101-18 .3c-8.3.2-14.9.4-19.8.4-4.9.1-8.7 0-11.3-.1-2.6-.2-4.4-.4-5.2-.801-.9-.399-1.4-.899-1.7-1.5-.3-.899-.1-2 .7-3.5.8-1.399 1.7-2.301 2.6-2.699.6-.2 1.4-.2 2.5 0 1.1.3 3.1.398 6.2.398 12.9.4 25.5.602 38 .801 12.399.199 24.2.301 35.3.301 11.102 0 21.301-.102 30.602-.2 9.3-.101 17.199-.4 23.8-.7.3 0 .6.2 1 .4.399.299.899.6 1.3.898.5.301.9.7 1.3 1 .4.301.601.602.7.7.2.5.2 1.101.2 2-.101.8-.2 1.399-.3 1.8-.2.898-.7 1.5-1.602 1.801-.503.201-1.102.201-1.902.201z"/><path d="m163.543 578.44c-.801-.102-1.801-.2-2.9-.301-1.1 0-3.5-.101-7.4-.199-3.898-.102-8.6-.2-14.199-.301-5.601-.101-11.899-.199-18.699-.399-6.801-.101-13.7-.2-20.7-.3-7 0-13.8 0-20.5 0s-12.7.1-18 .3c-8.3.2-14.9.399-19.8.399-4.9.101-8.7 0-11.3-.101-2.6-.2-4.4-.399-5.2-.8-.9-.4-1.4-.9-1.7-1.5-.3-.9-.1-2 .7-3.5.8-1.4 1.7-2.301 2.6-2.7.6-.2 1.4-.2 2.5 0 1.1.3 3.1.399 6.2.399 12.9.399 25.5.601 38 .801 12.399.199 24.2.3 35.3.3 11.102 0 21.301-.101 30.602-.2 9.3-.1 17.199-.398 23.8-.699.3 0 .6.199 1 .399.399.3.899.601 1.3.899.5.299.9.699 1.3 1 .4.299.601.601.7.699.2.5.2 1.102.2 2-.101.801-.2 1.4-.3 1.801-.2.899-.7 1.5-1.602 1.799-.503.304-1.102.304-1.902.204z"/></g></svg>