<svg enable-background="new 54.307 176.371 313.165 37.535" viewBox="54.307 176.371 313.165 37.535" xmlns="http://www.w3.org/2000/svg"><g fill="#efffef"><path d="m77.3 203.7c.9-.7 1.6-1.2 2-1.5.5-.3.8-.6 1-.7s.4-.1.6-.1h.7c.3 0 .6.1.9.1s.5.1.8.1c.2 0 .3.1.3.1 0 .1 0 .3-.1.4 0 .1-.1.2-.1.3 0 .4.1.9.3 1.5s.4 1.2.7 1.9.6 1.4 1 2.1c.3.7.7 1.3 1 1.9s.5 1.1.7 1.4c.2.4.3.6.3.7s-.1.1-.3.2-.5.1-.8.2-.6.1-.8.1c-.3 0-.4 0-.5 0-.3 0-.4 0-.5-.1s-.2-.2-.2-.3c-.2-.8-.5-1.7-.8-2.5s-.6-1.6-.9-2.4-.6-1.5-.9-2.2-.6-1.4-.8-2c-1.8 1.3-3.3 2.3-4.4 3-1.1.8-1.9 1.4-2.5 1.8s-1 .8-1.1 1c-.2.2-.3.4-.3.6s-.1.4-.3.4c-.2.1-.5.1-.9.1s-.7 0-.8-.1c-.2-.1-.4-.2-.6-.5-.1-.1-.3-.3-.7-.6s-.8-.6-1.3-1-1.1-.7-1.7-1.2c-.6-.4-1.2-.8-1.8-1.2s-1.1-.7-1.6-1.1c-.5-.3-.9-.6-1.1-.8-.1.1-.2.4-.4.9-.2.4-.4.9-.7 1.5s-.5 1.2-.8 1.8-.5 1.2-.7 1.8c-.2.5-.4 1-.5 1.4s-.2.6-.2.7 0 .2.1.3.1.2.1.3-.1.1-.2.1-.3.1-.6.1c-.7 0-1.3 0-1.8-.1s-.8-.2-.8-.4c0-.1.1-.2.2-.4s.3-.4.6-.8c.1-.2.3-.5.6-.9s.5-.9.8-1.5.6-1.1.9-1.7.6-1.2.8-1.7.4-1 .6-1.5c.2-.4.2-.7.2-.9s-.1-.4-.2-.4c-.1-.1-.2-.2-.2-.3s.2-.2.6-.3c.4 0 .9-.1 1.5-.1.5 0 .8 0 .9.1.2 0 .3.1.3.3.1.2.3.4.7.8.4.3.9.7 1.4 1.1.6.4 1.2.9 1.8 1.3.7.5 1.3.9 1.9 1.3s1.2.8 1.7 1.1.9.6 1.1.7l2.4-1.7c1.3-.9 2.6-1.8 3.4-2.5z"/><path d="m97 205.1c0-.4-.1-.7-.1-1 0-.2 0-.3 0-.4s-.1-.2-.3-.3c-.3-.1-.5-.3-.6-.4s-.1-.2-.1-.3.1-.2.4-.3.5-.3.9-.4c.3-.1.7-.2 1-.3s.6-.1.8-.1c.3 0 .7.1 1 .2.4.1.6.2.6.3s-.1.3-.2.5-.2.3-.2.5c-.1.5-.2 1.5-.3 2.7-.1 1.3-.1 3-.1 5.3 0 .7-.1 1.2-.3 1.5-.2.2-.6.4-1 .4-.2 0-.4 0-.5 0-.2 0-.3-.1-.4-.2s-.2-.3-.3-.6-.1-.6-.1-1.1 0-1-.1-1.7c0-.7 0-1.5 0-2.5-.1-.9-.1-1.4-.1-1.8z"/><path d="m107.9 203.1c-.3 0-.5 0-.8 0s-.6-.1-.8-.2c-.2-.2-.3-.3-.3-.5 0-.1.1-.2.4-.4.3-.1.6-.2.8-.2h1.1 1.5c.6 0 1.3 0 2.2.1h3c1.5 0 3.1 0 4.6-.1s3.1-.1 4.6-.1c.4 0 .6.1.6.3 0 .1-.1.1-.2.2s-.3.2-.5.3-.4.2-.6.2c-.2.1-.4.1-.6.1-.4 0-.9 0-1.4.1-.5 0-1.1 0-1.6 0-.6 0-1.1 0-1.6 0s-.9 0-1.3 0c-.1.4-.3.8-.4 1.2s-.2.9-.3 1.5c-.1.5-.1 1.2-.2 1.9s-.1 1.5-.1 2.4c0 .2.1.4.2.6s.3.4.6.5.6.3 1.1.4 1.1.1 1.8.1h.7.6c.2 0 .3 0 .4.1 0 .1.1.2.1.3 0 .2-.1.3-.4.4s-.7.2-1.3.3-1 .1-1.4.1c-.8 0-1.6-.1-2.2-.2-.7-.1-1.2-.3-1.7-.5s-.8-.5-1.1-.7c-.3-.3-.4-.5-.4-.7 0-.1 0-.3.1-.5s.1-.5.2-.8.1-.7.2-1.2.1-1 .1-1.7c0-.6 0-1.1 0-1.6s-.1-1.1-.3-1.6h-4.8c-.1-.1-.4-.1-.6-.1z"/><path d="m129 207.4c.1-.1.3-.2.4-.4.2-.1.4-.2.6-.3s.5-.1.7-.1h.4c.2 0 .4.1.6.1.3 0 .6.1 1 .1h1.5c.8 0 1.6 0 2.3-.1.7 0 1.2-.1 1.5-.1.1 0 .3 0 .3.1.1 0 .1.1.2.2 0 .1.1.1.1.2s0 .1 0 .1 0 .1-.1.1-.2.1-.4.2-.3.1-.5.1-.3.1-.4.1c-.5 0-1.4 0-2.5.1-1.1 0-2.7.1-4.6.1-.4 0-.7 0-1-.1-.3 0-.4-.1-.4-.2.1 0 .2-.1.3-.2z"/><path d="m166.3 203.7c.9-.7 1.6-1.2 2-1.5.5-.3.8-.6 1-.7s.4-.1.6-.1h.7c.3 0 .6.1.9.1s.5.1.8.1c.2 0 .3.1.3.1 0 .1 0 .3-.1.4 0 .1-.1.2-.1.3 0 .4.1.9.3 1.5s.4 1.2.7 1.9.6 1.4 1 2.1c.3.7.7 1.3 1 1.9s.5 1.1.7 1.4c.2.4.3.6.3.7s-.1.1-.3.2-.5.1-.8.2-.6.1-.8.1c-.3 0-.4 0-.5 0-.3 0-.4 0-.5-.1s-.2-.2-.2-.3c-.2-.8-.5-1.7-.8-2.5s-.6-1.6-.9-2.4-.6-1.5-.9-2.2-.6-1.4-.8-2c-1.8 1.3-3.3 2.3-4.4 3-1.1.8-1.9 1.4-2.5 1.8-.6.5-1 .8-1.1 1-.2.2-.3.4-.3.6s-.1.4-.3.4c-.2.1-.5.1-.9.1s-.7 0-.8-.1c-.2-.1-.4-.2-.6-.5-.1-.1-.3-.3-.7-.6s-.8-.6-1.3-1-1.1-.7-1.7-1.2c-.6-.4-1.2-.8-1.8-1.2s-1.1-.7-1.6-1.1c-.5-.3-.9-.6-1.1-.8-.1.1-.2.4-.4.9-.2.4-.4.9-.7 1.5s-.5 1.2-.8 1.8-.5 1.2-.7 1.8c-.2.5-.4 1-.5 1.4s-.2.6-.2.7 0 .2.1.3.1.2.1.3-.1.1-.2.1-.3.1-.6.1c-.7 0-1.3 0-1.8-.1s-.8-.2-.8-.4c0-.1.1-.2.2-.4s.3-.4.6-.8c.1-.2.3-.5.6-.9s.5-.9.8-1.5.6-1.1.9-1.7.6-1.2.8-1.7.4-1 .6-1.5c.2-.4.2-.7.2-.9s-.1-.4-.2-.4c-.1-.1-.2-.2-.2-.3s.2-.2.6-.3c.4 0 .9-.1 1.5-.1.5 0 .8 0 .9.1.2 0 .3.1.3.3.1.2.3.4.7.8.4.3.9.7 1.4 1.1.6.4 1.2.9 1.8 1.3.7.5 1.3.9 1.9 1.3s1.2.8 1.7 1.1.9.6 1.1.7l2.4-1.7c1.2-.9 2.5-1.8 3.4-2.5z"/><path d="m190 207.6c-.4.3-.6.5-.7.6s-.2.2-.2.2c0 .1 0 .1.1.1s.2.1.5.1h1.3s1.3 0 2.3 0h2.7s1.3 0 1.8 0h1c.2 0 .4 0 .5-.1l-6.6-3zm-2.1 2c-.5.1-1 .3-1.4.6l-2.1 1.6c-.1.1-.2.2-.3.4 0 .1-.2.2-.6.2-.8 0-1.4 0-1.9-.1s-.7-.2-.7-.3.1-.2.4-.4c.3-.1.6-.3 1-.5.5-.3 1.1-.6 1.7-1s1.2-.8 1.8-1.2 1.2-.9 1.8-1.3 1.1-.8 1.5-1.2.8-.7 1.1-1 .4-.5.4-.6c0-.2-.5-.6-1.4-1l-3.4-1.5c-.4-.2-.7-.3-1-.4s-.4-.2-.4-.3c0 0 .1-.1.3-.2s.5-.1.7-.2c.3-.1.6-.1.9-.2s.5-.1.7-.1h.9c.2 0 .4 0 .6.1.2 0 .3.1.4.2l.4.4c.1.1.2.2.5.4s.6.3.9.5c2.3 1.2 4.2 2.2 5.8 3.1 1.6.8 3.1 1.6 4.5 2.2s2.6 1.2 3.9 1.7c1.2.5 2.6 1.1 4.1 1.6.3.1.5.2.8.2s.5.1.6.1c.2 0 .3.1.4.1s.2.1.2.2c0 0-.1.1-.2.2-.2.1-.3.2-.6.3-.2.1-.4.2-.7.2-.2.1-.4.1-.6.1h-1.3c-.2 0-.4 0-.5-.1s-.2-.2-.3-.2c-.9-.6-2.8-1.5-5.6-2.7h-11.1c-.9 0-1.7 0-2.2.1z"/><path d="m220.1 205.9h.3s.4 0 .7-.1.8-.2 1.5-.3c.3 0 .5-.1.8-.2s.6-.1.9-.2.6-.2.8-.3c.3-.1.5-.3.6-.5.3-.4.5-.8.5-1.2 0-.2-.1-.3-.2-.4s-.3-.2-.4-.3c-.1 0-.2-.1-.4-.1s-.4-.1-.6-.1-.5-.1-.7-.1-.4 0-.5 0-.3 0-.6 0-.6 0-.9.1c-.3 0-.6.1-.9.1-.2.1-.4.1-.4.2-.1.3-.3.6-.3.9-.1.3-.2.7-.2 1-.1.3-.1.6-.1.9v.6c0-.1 0 0 .1 0zm1.1-4.9h1c1.1 0 2 .1 2.9.2s1.7.3 2.4.5 1.2.5 1.6.8.6.6.6.8c0 .4-.2.8-.5 1.1s-.8.6-1.3.8-1.1.4-1.6.5c-.6.1-1.1.2-1.6.3-.7.1-1.1.2-1.2.2s-.2.1-.2.1.1.1.3.1c.2.1.7.2 1.5.4s1.6.5 2.7.8c1 .3 2.1.6 3.3 1 .9.3 1.8.5 2.7.8s1.8.5 2.6.7 1.6.4 2.3.6 1.3.3 1.7.5c1.1.3 2.3.4 3.4.4.1 0 .2 0 .3.1s.1.1.1.2-.1.2-.4.3c-.2.1-.5.2-.8.4-.3.1-.6.2-1 .3-.3.1-.6.1-.7.1-.3 0-.9-.1-1.9-.4-.9-.3-2.1-.6-3.4-1s-2.7-.9-4.2-1.4-3-1-4.5-1.4-2.9-.8-4.2-1.1-2.4-.5-3.2-.6c-.1.2-.1.5-.1.8v.9.5c0 .5 0 .9.1 1.2s.1.6.1.8.1.4.1.5.1.2.1.3-.1.2-.2.3c-.2 0-.4.1-.8.1-.2 0-.5 0-.8 0s-.7-.1-1-.1-.6-.1-.8-.2-.3-.1-.3-.2 0-.1.1-.2.2-.1.3-.3c.1-.1.2-.2.3-.4s.2-.4.2-.6c0-.1 0-.3 0-.7s.1-.8.1-1.3.1-1 .1-1.6 0-1.1 0-1.6c0-.2 0-.5 0-.8s0-.6-.1-1c0-.3-.1-.6-.2-.8s-.2-.4-.3-.4c-.6-.1-.9-.3-.9-.6 0-.2.3-.3.8-.3l3.6-.4z"/><path d="m245.4 205.1c0-.4-.1-.7-.1-1 0-.2 0-.3 0-.4s-.1-.2-.3-.3c-.3-.1-.5-.3-.6-.4s-.1-.2-.1-.3.1-.2.4-.3.5-.3.9-.4c.3-.1.7-.2 1-.3s.6-.1.8-.1c.3 0 .7.1 1 .2.4.1.6.2.6.3s-.1.3-.2.5-.2.3-.2.5c-.1.5-.2 1.5-.3 2.7-.1 1.3-.1 3-.1 5.3 0 .7-.1 1.2-.3 1.5-.2.2-.6.4-1 .4-.2 0-.4 0-.5 0-.2 0-.3-.1-.4-.2s-.2-.3-.3-.6-.1-.6-.1-1.1 0-1-.1-1.7c0-.7 0-1.5 0-2.5 0-.9 0-1.4-.1-1.8z"/><path d="m260.8 208c.2.4.5.8 1.1 1.3.5.4 1.2.8 2.1 1.1s2 .5 3.4.5c.6 0 1.2-.1 2-.1.7-.1 1.4-.3 2.1-.6s1.2-.6 1.6-1.1.6-1.1.6-1.8c0-.8-.2-1.4-.5-1.9-.4-.5-.8-.9-1.4-1.3-.6-.3-1.3-.5-2-.7-.8-.1-1.5-.2-2.3-.2-1.1 0-2.1.1-2.9.3-.9.2-1.6.5-2.2.9s-1 .8-1.3 1.3-.5 1-.5 1.5c-.1.1 0 .4.2.8zm-2.7-2.5c.4-.6 1-1.2 1.9-1.7s2-.9 3.3-1.3 3-.5 4.9-.5c1.1 0 2.2.1 3.2.3s1.9.5 2.6.9c.8.4 1.4.9 1.8 1.5s.7 1.4.7 2.2-.3 1.5-.9 2.2c-.6.6-1.3 1.2-2.3 1.6-.9.4-2 .8-3.2 1s-2.5.3-3.8.3c-1 0-2.1-.1-3.1-.3-1.1-.2-2-.5-2.8-.9s-1.5-.9-2-1.5-.8-1.3-.8-2c-.1-.5.1-1.2.5-1.8z"/><path d="m286.6 204.9c0-.2 0-.5 0-.7 0-.4-.2-.7-.6-.9s-.8-.3-1.3-.4-.9-.2-1.3-.2c-.4-.1-.6-.2-.6-.3s.2-.2.5-.3l1.5-.5c.2-.1.4-.1.6-.2h.4c.2 0 .3 0 .5.1.2 0 .3.1.6.3 1.6.9 3.3 1.7 5 2.6s3.3 1.6 4.7 2.3c1.5.7 2.7 1.3 3.8 1.8s1.8.8 2.2 1c.2-.6.4-1.2.5-1.8s.1-1.2.1-1.8c0-.5 0-.9-.1-1.3s-.2-.7-.3-.9-.2-.4-.3-.6c-.1-.1-.1-.3-.1-.4s.1-.2.4-.3c.2-.1.5-.1.8-.2.3 0 .6-.1 1-.1h.9c.4 0 .7.1.8.2s.2.2.2.4c0 .1-.1.3-.2.6s-.3.7-.5 1.2-.3 1.1-.5 1.8c-.1.7-.2 1.6-.2 2.6v1s0 .7 0 1.1c0 .1-.1.3-.4.4s-.5.3-.9.4c-.3.1-.6.2-.9.3s-.5.1-.6.1-.3-.1-.4-.2-.2-.3-.4-.5c-.1-.2-.3-.4-.6-.7s-.6-.5-1.1-.8c-1.1-.6-2.2-1.1-3.4-1.7s-2.2-1.1-3.3-1.5c-1-.5-1.9-.9-2.8-1.3-.8-.4-1.4-.7-1.9-.9-.1.5-.2 1.1-.2 1.6-.1.6-.1 1.1-.1 1.6s0 1 0 1.5 0 .8 0 1.1v.8.6c0 .1 0 .2-.1.3s-.3.2-.6.2c-.7.1-1.2.1-1.5.2-.3 0-.7.1-1 .1-.5 0-.8-.1-.8-.3 0-.1.1-.2.2-.3s.3-.2.5-.4c.2-.1.4-.3.5-.6.2-.2.3-.5.3-.9l.5-4.6c.5-.1.5-.4.5-.6z"/><path d="m314.7 211.3c.2-.1.4-.2.7-.4.3-.1.5-.2.8-.3s.5-.1.6-.1h.5c.2 0 .4 0 .5.1.7.2 1.1.3 1.3.4s.3.2.3.3-.1.3-.3.4-.5.3-.7.4c-.3.1-.5.2-.8.3s-.4.1-.5.1-.3 0-.6-.1c-.3 0-.8-.2-1.6-.4-.3-.1-.5-.2-.5-.4-.1-.1 0-.1.3-.3z"/><path d="m331.5 209.2v1.3c0 .5.1.8.3.9s.601.2 1.101.2c1.3 0 2.5-.1 3.6-.2s2-.4 2.8-.8 1.4-.9 1.8-1.6.601-1.6.601-2.6c0-.8-.3-1.4-.9-2-.6-.5-1.3-.9-2.2-1.3-.8-.3-1.6-.5-2.399-.7-.8-.1-1.4-.2-1.8-.2-.5 0-1 0-1.5.1-.601.1-1 .2-1.301.3v5.3c-.102.4-.102.9-.102 1.3zm.3 3.4c-.3 0-.5 0-.7 0l-2.3-.1c-.5 0-.8-.1-1-.1s-.3-.1-.3-.2.1-.2.2-.2.3-.1.399-.2c.2-.1.301-.2.4-.3s.2-.3.3-.6c.101-.7.2-1.5.2-2.3.1-.8.1-1.5.1-2.2 0-.3 0-.6-.1-.9 0-.3-.1-.6-.2-.9s-.1-.6-.2-.9-.199-.5-.3-.7c-.1-.1-.2-.2-.399-.2-.2 0-.4 0-.5 0-.2 0-.301 0-.5-.1-.2 0-.2-.1-.2-.3s.1-.3.3-.4.7-.2 1.4-.3l2.899-.4c.601-.1 1.101-.1 1.5-.2.4-.1.7 0 .9 0h1c.6 0 1.3.1 2.1.2s1.7.2 2.7.4c.9.2 1.8.5 2.6.8.801.3 1.5.8 2 1.3s.801 1.1.801 1.8c0 .6 0 1.2-.101 1.7-.1.5-.2.9-.399 1.3-.2.4-.5.7-.801 1.1-.3.3-.8.6-1.3.9-.3.2-.7.4-1.3.5-.5.2-1.1.3-1.8.5-.7.1-1.3.3-2 .4s-1.3.2-1.9.3-1.1.1-1.6.2c-.4 0-.8.1-.9.1-.499.1-.799 0-.999 0z"/><path d="m365.8 206.7s-.1.1-.2.2c-.199.1-.3.2-.6.3s-.4.2-.6.2c-.2.1-.4.1-.5.1-1.301.1-2.4.1-3.5.1-1.101 0-2 0-2.9 0 0 1.5.7 2.6 2 3.4s3.4 1.1 6.3 1.1c.601 0 1 0 1.2.1s.3.2.3.3-.2.2-.6.3-1.2.1-2.2.1c-1.6 0-2.9-.1-4.1-.2-1.101-.2-2-.4-2.801-.6-.8-.3-1.3-.6-1.8-.9-.399-.3-.8-.7-1-1.1s-.399-.8-.399-1.1c-.101-.4-.101-.8-.101-1.1 0-1.2.3-2.3.8-3.1s1.2-1.5 2-2c.801-.5 1.801-.9 2.9-1.1 1.1-.2 2.2-.3 3.4-.3 1.199 0 2 0 2.399.1s.601.2.601.4c0 .3-.301.4-.801.4h-2.5c-.699 0-1.3.1-1.899.2-.601.1-1.2.4-1.7.7s-1 .8-1.3 1.4c-.4.6-.601 1.4-.7 2.3.2-.1.5-.2.8-.2.3-.1.7-.1 1.101-.1h5.6c.5-.1.8 0 .8.1z"/><path d="m237.9 179.5c.9-.7 1.6-1.2 2-1.5.5-.3.8-.6 1-.7s.4-.1.6-.1.4 0 .7 0 .6.1.9.1.5.1.8.1c.2 0 .3.1.3.1 0 .1 0 .3-.1.4 0 .1-.1.2-.1.3 0 .4.1.9.3 1.5s.4 1.2.7 1.9.6 1.4 1 2.1c.3.7.7 1.3 1 1.9s.5 2.4.7 2.8.3.6.3.7-.1.1-.3.2-.5.1-.8.2c-.3 0-.6.1-.8.1-.3 0-.4 0-.5 0-.3 0-.4 0-.5-.1-.1 0-.2-.2-.2-.3-.2-.8-.5-3-.8-3.8s-.6-1.6-.9-2.4-.6-1.5-.9-2.2-.6-1.4-.8-2c-1.8 1.3-3.3 2.3-4.4 3-1.1.8-1.9 1.4-2.5 1.8-.6.5-1 .8-1.1 1-.2.2-.3.4-.3.6s-.1.4-.3.4c-.2.1-.5.1-.9.1s-.7 0-.8-.1c-.2-.1-.4-.2-.6-.5-.1-.1-.3-.3-.7-.6s-.8-.6-1.3-1-1.1-.7-1.7-1.2-1.2-.8-1.8-1.2-1.1-.7-1.6-1.1c-.5-.3-.9-.6-1.1-.8-.1.1-.2.4-.4.9-.2.4-.4.9-.7 1.5s-.5 1.2-.8 1.8-.5 1.2-.7 1.8c-.2.5-.4 1-.5 1.4s-.2.6-.2.7 0 .2.1.3.1.2.1.3c0 0-.1.1-.2.1s-.3.1-.6.1c-.7 0-1.3 0-1.8-.1s-.8-.2-.8-.4c0-.1.1-.2.2-.4s.3-.4.6-.8c.1-.2.3-.5.6-.9s.5-.9.8-1.5.6-1.1.9-1.7.6-1.2.8-1.7.4-1 .6-1.5c.2-.4.2-.7.2-.9s-.1-.4-.2-.4c-.1-.1-.2-.2-.2-.3s.2-.2.6-.3c.4 0 .9-.1 1.5-.1.5 0 .8 0 .9.1.2 0 .3.1.3.3.1.2.3.4.7.8.4.3.9.7 1.4 1.1.6.4 1.2.9 1.8 1.3.7.5 1.3.9 1.9 1.3s1.2.8 1.7 1.1.9.6 1.1.7l2.4-1.7c1.3-1.1 2.6-2 3.4-2.6z"/><path d="m268 179.5c.9-.7 1.6-1.2 2-1.5.5-.3.8-.6 1-.7s.4-.1.6-.1h.7c.3 0 .6.1.9.1s.5.1.8.1c.2 0 .3.1.3.1 0 .1 0 .3-.1.4 0 .1-.1.2-.1.3 0 .4.1.9.3 1.5s.4 1.2.7 1.9.6 1.4 1 2.1c.3.7.7 1.3 1 1.9s.5 1.1.7 1.4c.2.4.3.6.3.7s-.1.1-.3.2-.5.1-.8.2-.6.1-.8.1c-.3 0-.4 0-.5 0-.3 0-.4 0-.5-.1-.1 0-.2-.2-.2-.3-.2-.8-.5-1.7-.8-2.5s-.6-1.6-.9-2.4-.6-1.5-.9-2.2-.6-1.4-.8-2c-1.8 1.3-3.3 2.3-4.4 3s-1.9 1.4-2.5 1.8c-.6.5-1 .8-1.1 1-.2.2-.3.4-.3.6s-.1.4-.3.4-.5.1-.9.1-.7 0-.8-.1-.4-.2-.6-.5c-.1-.1-.3-.3-.7-.6s-.8-.6-1.3-1-1.1-.7-1.7-1.2-1.2-.8-1.8-1.2-1.1-.7-1.6-1.1c-.5-.3-.9-.6-1.1-.8-.1.1-.2.4-.4.9-.2.4-.4.9-.7 1.5s-.5 1.2-.8 1.8-.5 1.2-.7 1.8-.4 1-.5 1.4-.2 2-.2 2c0 .1 0 .2.1.3s.1.2.1.3-.1.1-.2.1-.3.1-.6.1c-.7 0-1.3 0-1.8-.1s-.8-.2-.8-.4c0-.1.1-.2.2-.4s.3-1.8.6-2.1c.1-.2.3-.5.6-.9s.5-.9.8-1.5.6-1.1.9-1.7.6-1.2.8-1.7.4-1 .6-1.5c.2-.4.2-.7.2-.9s-.1-.4-.2-.4c-.1-.1-.2-.2-.2-.3s.2-.2.6-.3c.4 0 .9-.1 1.5-.1.5 0 .8 0 .9.1.2 0 .3.1.3.3.1.2.3.4.7.8.4.3.9.7 1.4 1.1.6.4 1.2.9 1.8 1.3.7.5 1.3.9 1.9 1.3s1.2.8 1.7 1.1.9.6 1.1.7l2.4-1.7c1.3-1 2.5-1.9 3.4-2.5z"/><path d="m226.4 188.8c.6.4 1.8.8 3.5 1.3 1.7.4 4 .8 7 1.1 2.9.3 6.7.5 11.3.5 1.9 0 4.1-.1 6.5-.1 2.4-.1 4.7-.3 6.8-.6 2.2-.3 3.9-.6 5.4-1.1 1.4-.5 2.1-1.3 2.1-2 0-.8-43.5-.6-43.5-.1 0 .1.3.6.9 1zm51.7-1c0 .8-.9 1.5-2.8 2.2-1.9.6-4.4 1.2-7.5 1.6s-6.7.8-10.7 1-8.2.3-12.5.3c-3.4 0-6.8-.1-10.3-.3s-6.6-.5-9.4-.9-5-.9-6.7-1.5-2.6-1.8-2.6-2.6c0-.9 62.5-1.4 62.5.2z"/></g></svg>