<?xml version="1.0" encoding="utf-8"?>
<!DOCTYPE svg PUBLIC "-//W3C//DTD SVG 1.1//EN" "http://www.w3.org/Graphics/SVG/1.1/DTD/svg11.dtd">
<svg xmlns="http://www.w3.org/2000/svg" xmlns:xlink="http://www.w3.org/1999/xlink"
     x="0px"
     y="0px"
     viewBox="54.307 176.371 313.165 37.535"
     enable-background="new 54.307 176.371 313.165 37.535" xml:space="preserve">
        <path fill="#EFFFEF" d="M77.3,203.7c0.9-0.7,1.6-1.2,2-1.5c0.5-0.3,0.8-0.6,1-0.7c0.2-0.1,0.4-0.1,0.6-0.1c0.2,0,0.4,0,0.7,0
            c0.3,0,0.6,0.1,0.9,0.1s0.5,0.1,0.8,0.1c0.2,0,0.3,0.1,0.3,0.1c0,0.1,0,0.3-0.1,0.4c0,0.1-0.1,0.2-0.1,0.3c0,0.4,0.1,0.9,0.3,1.5
            c0.2,0.6,0.4,1.2,0.7,1.9c0.3,0.7,0.6,1.4,1,2.1c0.3,0.7,0.7,1.3,1,1.9c0.3,0.6,0.5,1.1,0.7,1.4c0.2,0.4,0.3,0.6,0.3,0.7
            s-0.1,0.1-0.3,0.2c-0.2,0.1-0.5,0.1-0.8,0.2c-0.3,0.1-0.6,0.1-0.8,0.1c-0.3,0-0.4,0-0.5,0c-0.3,0-0.4,0-0.5-0.1
            c-0.1-0.1-0.2-0.2-0.2-0.3c-0.2-0.8-0.5-1.7-0.8-2.5s-0.6-1.6-0.9-2.4c-0.3-0.8-0.6-1.5-0.9-2.2c-0.3-0.7-0.6-1.4-0.8-2
            c-1.8,1.3-3.3,2.3-4.4,3c-1.1,0.8-1.9,1.4-2.5,1.8c-0.6,0.4-1,0.8-1.1,1c-0.2,0.2-0.3,0.4-0.3,0.6c0,0.2-0.1,0.4-0.3,0.4
            c-0.2,0.1-0.5,0.1-0.9,0.1s-0.7,0-0.8-0.1c-0.2-0.1-0.4-0.2-0.6-0.5c-0.1-0.1-0.3-0.3-0.7-0.6c-0.4-0.3-0.8-0.6-1.3-1
            s-1.1-0.7-1.7-1.2c-0.6-0.4-1.2-0.8-1.8-1.2c-0.6-0.4-1.1-0.7-1.6-1.1c-0.5-0.3-0.9-0.6-1.1-0.8c-0.1,0.1-0.2,0.4-0.4,0.9
            c-0.2,0.4-0.4,0.9-0.7,1.5c-0.3,0.6-0.5,1.2-0.8,1.8c-0.3,0.6-0.5,1.2-0.7,1.8c-0.2,0.5-0.4,1-0.5,1.4c-0.1,0.4-0.2,0.6-0.2,0.7
            s0,0.2,0.1,0.3c0.1,0.1,0.1,0.2,0.1,0.3s-0.1,0.1-0.2,0.1s-0.3,0.1-0.6,0.1c-0.7,0-1.3,0-1.8-0.1s-0.8-0.2-0.8-0.4
            c0-0.1,0.1-0.2,0.2-0.4c0.1-0.2,0.3-0.4,0.6-0.8c0.1-0.2,0.3-0.5,0.6-0.9c0.3-0.4,0.5-0.9,0.8-1.5s0.6-1.1,0.9-1.7
            c0.3-0.6,0.6-1.2,0.8-1.7c0.2-0.5,0.4-1,0.6-1.5c0.2-0.4,0.2-0.7,0.2-0.9c0-0.2-0.1-0.4-0.2-0.4c-0.1-0.1-0.2-0.2-0.2-0.3
            s0.2-0.2,0.6-0.3c0.4,0,0.9-0.1,1.5-0.1c0.5,0,0.8,0,0.9,0.1c0.2,0,0.3,0.1,0.3,0.3c0.1,0.2,0.3,0.4,0.7,0.8
            c0.4,0.3,0.9,0.7,1.4,1.1c0.6,0.4,1.2,0.9,1.8,1.3c0.7,0.5,1.3,0.9,1.9,1.3c0.6,0.4,1.2,0.8,1.7,1.1c0.5,0.3,0.9,0.6,1.1,0.7
            l2.4-1.7C75.2,205.3,76.5,204.4,77.3,203.7L77.3,203.7z"/>
    <path fill="#EFFFEF" d="M97,205.1c0-0.4-0.1-0.7-0.1-1c0-0.2,0-0.3,0-0.4c0-0.1-0.1-0.2-0.3-0.3c-0.3-0.1-0.5-0.3-0.6-0.4
            s-0.1-0.2-0.1-0.3c0-0.1,0.1-0.2,0.4-0.3c0.3-0.1,0.5-0.3,0.9-0.4c0.3-0.1,0.7-0.2,1-0.3c0.3-0.1,0.6-0.1,0.8-0.1
            c0.3,0,0.7,0.1,1,0.2c0.4,0.1,0.6,0.2,0.6,0.3s-0.1,0.3-0.2,0.5c-0.1,0.2-0.2,0.3-0.2,0.5c-0.1,0.5-0.2,1.5-0.3,2.7
            c-0.1,1.3-0.1,3-0.1,5.3c0,0.7-0.1,1.2-0.3,1.5c-0.2,0.2-0.6,0.4-1,0.4c-0.2,0-0.4,0-0.5,0c-0.2,0-0.3-0.1-0.4-0.2
            c-0.1-0.1-0.2-0.3-0.3-0.6c-0.1-0.3-0.1-0.6-0.1-1.1s0-1-0.1-1.7c0-0.7,0-1.5,0-2.5C97,206,97,205.5,97,205.1L97,205.1z"/>
    <path fill="#EFFFEF" d="M107.9,203.1c-0.3,0-0.5,0-0.8,0c-0.3,0-0.6-0.1-0.8-0.2c-0.2-0.2-0.3-0.3-0.3-0.5c0-0.1,0.1-0.2,0.4-0.4
            c0.3-0.1,0.6-0.2,0.8-0.2c0.3,0,0.7,0,1.1,0c0.4,0,0.9,0,1.5,0c0.6,0,1.3,0,2.2,0.1c0.8,0,1.8,0,3,0c1.5,0,3.1,0,4.6-0.1
            c1.5-0.1,3.1-0.1,4.6-0.1c0.4,0,0.6,0.1,0.6,0.3c0,0.1-0.1,0.1-0.2,0.2c-0.1,0.1-0.3,0.2-0.5,0.3c-0.2,0.1-0.4,0.2-0.6,0.2
            c-0.2,0.1-0.4,0.1-0.6,0.1c-0.4,0-0.9,0-1.4,0.1c-0.5,0-1.1,0-1.6,0c-0.6,0-1.1,0-1.6,0s-0.9,0-1.3,0c-0.1,0.4-0.3,0.8-0.4,1.2
            s-0.2,0.9-0.3,1.5c-0.1,0.5-0.1,1.2-0.2,1.9s-0.1,1.5-0.1,2.4c0,0.2,0.1,0.4,0.2,0.6c0.1,0.2,0.3,0.4,0.6,0.5
            c0.3,0.1,0.6,0.3,1.1,0.4s1.1,0.1,1.8,0.1c0.2,0,0.4,0,0.7,0c0.3,0,0.5,0,0.6,0c0.2,0,0.3,0,0.4,0.1c0,0.1,0.1,0.2,0.1,0.3
            c0,0.2-0.1,0.3-0.4,0.4c-0.3,0.1-0.7,0.2-1.3,0.3c-0.6,0.1-1,0.1-1.4,0.1c-0.8,0-1.6-0.1-2.2-0.2c-0.7-0.1-1.2-0.3-1.7-0.5
            s-0.8-0.5-1.1-0.7c-0.3-0.3-0.4-0.5-0.4-0.7c0-0.1,0-0.3,0.1-0.5c0.1-0.2,0.1-0.5,0.2-0.8c0.1-0.3,0.1-0.7,0.2-1.2s0.1-1,0.1-1.7
            c0-0.6,0-1.1,0-1.6s-0.1-1.1-0.3-1.6h-4.8C108.4,203.1,108.1,203.1,107.9,203.1L107.9,203.1z"/>
    <path fill="#EFFFEF" d="M129,207.4c0.1-0.1,0.3-0.2,0.4-0.4c0.2-0.1,0.4-0.2,0.6-0.3c0.2-0.1,0.5-0.1,0.7-0.1c0.1,0,0.2,0,0.4,0
            c0.2,0,0.4,0.1,0.6,0.1c0.3,0,0.6,0.1,1,0.1c0.4,0,0.9,0,1.5,0c0.8,0,1.6,0,2.3-0.1c0.7,0,1.2-0.1,1.5-0.1c0.1,0,0.3,0,0.3,0.1
            c0.1,0,0.1,0.1,0.2,0.2c0,0.1,0.1,0.1,0.1,0.2s0,0.1,0,0.1s0,0.1-0.1,0.1s-0.2,0.1-0.4,0.2c-0.2,0.1-0.3,0.1-0.5,0.1
            c-0.2,0-0.3,0.1-0.4,0.1c-0.5,0-1.4,0-2.5,0.1c-1.1,0-2.7,0.1-4.6,0.1c-0.4,0-0.7,0-1-0.1c-0.3,0-0.4-0.1-0.4-0.2
            C128.8,207.6,128.9,207.5,129,207.4L129,207.4z"/>
    <path fill="#EFFFEF" d="M166.3,203.7c0.9-0.7,1.6-1.2,2-1.5c0.5-0.3,0.8-0.6,1-0.7c0.2-0.1,0.4-0.1,0.6-0.1c0.2,0,0.4,0,0.7,0
            c0.3,0,0.6,0.1,0.9,0.1s0.5,0.1,0.8,0.1c0.2,0,0.3,0.1,0.3,0.1c0,0.1,0,0.3-0.1,0.4c0,0.1-0.1,0.2-0.1,0.3c0,0.4,0.1,0.9,0.3,1.5
            c0.2,0.6,0.4,1.2,0.7,1.9c0.3,0.7,0.6,1.4,1,2.1c0.3,0.7,0.7,1.3,1,1.9c0.3,0.6,0.5,1.1,0.7,1.4c0.2,0.4,0.3,0.6,0.3,0.7
            s-0.1,0.1-0.3,0.2c-0.2,0.1-0.5,0.1-0.8,0.2c-0.3,0.1-0.6,0.1-0.8,0.1c-0.3,0-0.4,0-0.5,0c-0.3,0-0.4,0-0.5-0.1
            c-0.1-0.1-0.2-0.2-0.2-0.3c-0.2-0.8-0.5-1.7-0.8-2.5s-0.6-1.6-0.9-2.4c-0.3-0.8-0.6-1.5-0.9-2.2c-0.3-0.7-0.6-1.4-0.8-2
            c-1.8,1.3-3.3,2.3-4.4,3c-1.1,0.8-1.9,1.4-2.5,1.8c-0.6,0.5-1,0.8-1.1,1c-0.2,0.2-0.3,0.4-0.3,0.6c0,0.2-0.1,0.4-0.3,0.4
            c-0.2,0.1-0.5,0.1-0.9,0.1s-0.7,0-0.8-0.1c-0.2-0.1-0.4-0.2-0.6-0.5c-0.1-0.1-0.3-0.3-0.7-0.6c-0.4-0.3-0.8-0.6-1.3-1
            s-1.1-0.7-1.7-1.2c-0.6-0.4-1.2-0.8-1.8-1.2c-0.6-0.4-1.1-0.7-1.6-1.1c-0.5-0.3-0.9-0.6-1.1-0.8c-0.1,0.1-0.2,0.4-0.4,0.9
            c-0.2,0.4-0.4,0.9-0.7,1.5c-0.3,0.6-0.5,1.2-0.8,1.8c-0.3,0.6-0.5,1.2-0.7,1.8c-0.2,0.5-0.4,1-0.5,1.4c-0.1,0.4-0.2,0.6-0.2,0.7
            s0,0.2,0.1,0.3c0.1,0.1,0.1,0.2,0.1,0.3s-0.1,0.1-0.2,0.1s-0.3,0.1-0.6,0.1c-0.7,0-1.3,0-1.8-0.1s-0.8-0.2-0.8-0.4
            c0-0.1,0.1-0.2,0.2-0.4c0.1-0.2,0.3-0.4,0.6-0.8c0.1-0.2,0.3-0.5,0.6-0.9c0.3-0.4,0.5-0.9,0.8-1.5s0.6-1.1,0.9-1.7
            c0.3-0.6,0.6-1.2,0.8-1.7c0.2-0.5,0.4-1,0.6-1.5c0.2-0.4,0.2-0.7,0.2-0.9c0-0.2-0.1-0.4-0.2-0.4c-0.1-0.1-0.2-0.2-0.2-0.3
            s0.2-0.2,0.6-0.3c0.4,0,0.9-0.1,1.5-0.1c0.5,0,0.8,0,0.9,0.1c0.2,0,0.3,0.1,0.3,0.3c0.1,0.2,0.3,0.4,0.7,0.8
            c0.4,0.3,0.9,0.7,1.4,1.1c0.6,0.4,1.2,0.9,1.8,1.3c0.7,0.5,1.3,0.9,1.9,1.3c0.6,0.4,1.2,0.8,1.7,1.1c0.5,0.3,0.9,0.6,1.1,0.7
            l2.4-1.7C164.1,205.3,165.4,204.4,166.3,203.7L166.3,203.7z"/>
    <path fill="#EFFFEF" d="M190,207.6c-0.4,0.3-0.6,0.5-0.7,0.6c-0.1,0.1-0.2,0.2-0.2,0.2c0,0.1,0,0.1,0.1,0.1c0.1,0,0.2,0.1,0.5,0.1
            c0.3,0,0.7,0,1.3,0s1.3,0,2.3,0c1.1,0,2,0,2.7,0s1.3,0,1.8,0c0.4,0,0.8,0,1,0c0.2,0,0.4,0,0.5-0.1l-6.6-3L190,207.6L190,207.6z
             M187.9,209.6c-0.5,0.1-1,0.3-1.4,0.6l-2.1,1.6c-0.1,0.1-0.2,0.2-0.3,0.4c0,0.1-0.2,0.2-0.6,0.2c-0.8,0-1.4,0-1.9-0.1
            c-0.5-0.1-0.7-0.2-0.7-0.3s0.1-0.2,0.4-0.4c0.3-0.1,0.6-0.3,1-0.5c0.5-0.3,1.1-0.6,1.7-1s1.2-0.8,1.8-1.2c0.6-0.4,1.2-0.9,1.8-1.3
            s1.1-0.8,1.5-1.2s0.8-0.7,1.1-1c0.3-0.3,0.4-0.5,0.4-0.6c0-0.2-0.5-0.6-1.4-1l-3.4-1.5c-0.4-0.2-0.7-0.3-1-0.4
            c-0.3-0.1-0.4-0.2-0.4-0.3c0,0,0.1-0.1,0.3-0.2c0.2-0.1,0.5-0.1,0.7-0.2c0.3-0.1,0.6-0.1,0.9-0.2c0.3-0.1,0.5-0.1,0.7-0.1
            c0.4,0,0.7,0,0.9,0c0.2,0,0.4,0,0.6,0.1c0.2,0,0.3,0.1,0.4,0.2c0.1,0.1,0.2,0.2,0.4,0.4c0.1,0.1,0.2,0.2,0.5,0.4
            c0.3,0.2,0.6,0.3,0.9,0.5c2.3,1.2,4.2,2.2,5.8,3.1c1.6,0.8,3.1,1.6,4.5,2.2c1.4,0.6,2.6,1.2,3.9,1.7c1.2,0.5,2.6,1.1,4.1,1.6
            c0.3,0.1,0.5,0.2,0.8,0.2c0.3,0,0.5,0.1,0.6,0.1c0.2,0,0.3,0.1,0.4,0.1c0.1,0,0.2,0.1,0.2,0.2c0,0-0.1,0.1-0.2,0.2
            c-0.2,0.1-0.3,0.2-0.6,0.3c-0.2,0.1-0.4,0.2-0.7,0.2c-0.2,0.1-0.4,0.1-0.6,0.1h-1.3c-0.2,0-0.4,0-0.5-0.1s-0.2-0.2-0.3-0.2
            c-0.9-0.6-2.8-1.5-5.6-2.7h-11.1C189.2,209.5,188.4,209.5,187.9,209.6L187.9,209.6z"/>
    <path fill="#EFFFEF" d="M220.1,205.9c0.1,0,0.2,0,0.3,0s0.4,0,0.7-0.1c0.3-0.1,0.8-0.2,1.5-0.3c0.3,0,0.5-0.1,0.8-0.2
            c0.3-0.1,0.6-0.1,0.9-0.2c0.3-0.1,0.6-0.2,0.8-0.3c0.3-0.1,0.5-0.3,0.6-0.5c0.3-0.4,0.5-0.8,0.5-1.2c0-0.2-0.1-0.3-0.2-0.4
            c-0.1-0.1-0.3-0.2-0.4-0.3c-0.1,0-0.2-0.1-0.4-0.1c-0.2,0-0.4-0.1-0.6-0.1c-0.2,0-0.5-0.1-0.7-0.1c-0.2,0-0.4,0-0.5,0s-0.3,0-0.6,0
            c-0.3,0-0.6,0-0.9,0.1c-0.3,0-0.6,0.1-0.9,0.1c-0.2,0.1-0.4,0.1-0.4,0.2c-0.1,0.3-0.3,0.6-0.3,0.9c-0.1,0.3-0.2,0.7-0.2,1
            c-0.1,0.3-0.1,0.6-0.1,0.9c0,0.3,0,0.5,0,0.6C220,205.8,220,205.9,220.1,205.9L220.1,205.9z M221.2,201c0.3,0,0.6,0,1,0
            c1.1,0,2,0.1,2.9,0.2c0.9,0.1,1.7,0.3,2.4,0.5c0.7,0.2,1.2,0.5,1.6,0.8s0.6,0.6,0.6,0.8c0,0.4-0.2,0.8-0.5,1.1
            c-0.3,0.3-0.8,0.6-1.3,0.8c-0.5,0.2-1.1,0.4-1.6,0.5c-0.6,0.1-1.1,0.2-1.6,0.3c-0.7,0.1-1.1,0.2-1.2,0.2s-0.2,0.1-0.2,0.1
            s0.1,0.1,0.3,0.1c0.2,0.1,0.7,0.2,1.5,0.4c0.8,0.2,1.6,0.5,2.7,0.8c1,0.3,2.1,0.6,3.3,1c0.9,0.3,1.8,0.5,2.7,0.8
            c0.9,0.3,1.8,0.5,2.6,0.7c0.8,0.2,1.6,0.4,2.3,0.6c0.7,0.2,1.3,0.3,1.7,0.5c1.1,0.3,2.3,0.4,3.4,0.4c0.1,0,0.2,0,0.3,0.1
            c0.1,0.1,0.1,0.1,0.1,0.2s-0.1,0.2-0.4,0.3c-0.2,0.1-0.5,0.2-0.8,0.4c-0.3,0.1-0.6,0.2-1,0.3c-0.3,0.1-0.6,0.1-0.7,0.1
            c-0.3,0-0.9-0.1-1.9-0.4c-0.9-0.3-2.1-0.6-3.4-1s-2.7-0.9-4.2-1.4s-3-1-4.5-1.4c-1.5-0.4-2.9-0.8-4.2-1.1c-1.3-0.3-2.4-0.5-3.2-0.6
            c-0.1,0.2-0.1,0.5-0.1,0.8c0,0.3,0,0.6,0,0.9v0.5c0,0.5,0,0.9,0.1,1.2s0.1,0.6,0.1,0.8c0,0.2,0.1,0.4,0.1,0.5c0,0.1,0.1,0.2,0.1,0.3
            s-0.1,0.2-0.2,0.3c-0.2,0-0.4,0.1-0.8,0.1c-0.2,0-0.5,0-0.8,0c-0.3,0-0.7-0.1-1-0.1c-0.3,0-0.6-0.1-0.8-0.2
            c-0.2-0.1-0.3-0.1-0.3-0.2s0-0.1,0.1-0.2c0.1-0.1,0.2-0.1,0.3-0.3c0.1-0.1,0.2-0.2,0.3-0.4c0.1-0.2,0.2-0.4,0.2-0.6
            c0-0.1,0-0.3,0-0.7c0-0.4,0.1-0.8,0.1-1.3s0.1-1,0.1-1.6s0-1.1,0-1.6c0-0.2,0-0.5,0-0.8s0-0.6-0.1-1c0-0.3-0.1-0.6-0.2-0.8
            c-0.1-0.2-0.2-0.4-0.3-0.4c-0.6-0.1-0.9-0.3-0.9-0.6c0-0.2,0.3-0.3,0.8-0.3l3.6-0.4C220.7,201,220.9,201,221.2,201L221.2,201z"/>
    <path fill="#EFFFEF" d="M245.4,205.1c0-0.4-0.1-0.7-0.1-1c0-0.2,0-0.3,0-0.4c0-0.1-0.1-0.2-0.3-0.3c-0.3-0.1-0.5-0.3-0.6-0.4
            s-0.1-0.2-0.1-0.3c0-0.1,0.1-0.2,0.4-0.3c0.3-0.1,0.5-0.3,0.9-0.4c0.3-0.1,0.7-0.2,1-0.3c0.3-0.1,0.6-0.1,0.8-0.1
            c0.3,0,0.7,0.1,1,0.2c0.4,0.1,0.6,0.2,0.6,0.3s-0.1,0.3-0.2,0.5c-0.1,0.2-0.2,0.3-0.2,0.5c-0.1,0.5-0.2,1.5-0.3,2.7
            c-0.1,1.3-0.1,3-0.1,5.3c0,0.7-0.1,1.2-0.3,1.5c-0.2,0.2-0.6,0.4-1,0.4c-0.2,0-0.4,0-0.5,0c-0.2,0-0.3-0.1-0.4-0.2
            c-0.1-0.1-0.2-0.3-0.3-0.6c-0.1-0.3-0.1-0.6-0.1-1.1s0-1-0.1-1.7c0-0.7,0-1.5,0-2.5C245.5,206,245.5,205.5,245.4,205.1L245.4,205.1z
        "/>
    <path fill="#EFFFEF" d="M260.8,208c0.2,0.4,0.5,0.8,1.1,1.3c0.5,0.4,1.2,0.8,2.1,1.1c0.9,0.3,2,0.5,3.4,0.5c0.6,0,1.2-0.1,2-0.1
            c0.7-0.1,1.4-0.3,2.1-0.6c0.7-0.3,1.2-0.6,1.6-1.1s0.6-1.1,0.6-1.8c0-0.8-0.2-1.4-0.5-1.9c-0.4-0.5-0.8-0.9-1.4-1.3
            c-0.6-0.3-1.3-0.5-2-0.7c-0.8-0.1-1.5-0.2-2.3-0.2c-1.1,0-2.1,0.1-2.9,0.3c-0.9,0.2-1.6,0.5-2.2,0.9s-1,0.8-1.3,1.3
            c-0.3,0.5-0.5,1-0.5,1.5C260.5,207.3,260.6,207.6,260.8,208L260.8,208z M258.1,205.5c0.4-0.6,1-1.2,1.9-1.7s2-0.9,3.3-1.3
            c1.3-0.4,3-0.5,4.9-0.5c1.1,0,2.2,0.1,3.2,0.3c1,0.2,1.9,0.5,2.6,0.9c0.8,0.4,1.4,0.9,1.8,1.5c0.4,0.6,0.7,1.4,0.7,2.2
            c0,0.8-0.3,1.5-0.9,2.2c-0.6,0.6-1.3,1.2-2.3,1.6c-0.9,0.4-2,0.8-3.2,1c-1.2,0.2-2.5,0.3-3.8,0.3c-1,0-2.1-0.1-3.1-0.3
            c-1.1-0.2-2-0.5-2.8-0.9c-0.8-0.4-1.5-0.9-2-1.5c-0.5-0.6-0.8-1.3-0.8-2C257.5,206.8,257.7,206.1,258.1,205.5L258.1,205.5z"/>
    <path fill="#EFFFEF" d="M286.6,204.9c0-0.2,0-0.5,0-0.7c0-0.4-0.2-0.7-0.6-0.9c-0.4-0.2-0.8-0.3-1.3-0.4s-0.9-0.2-1.3-0.2
            c-0.4-0.1-0.6-0.2-0.6-0.3s0.2-0.2,0.5-0.3l1.5-0.5c0.2-0.1,0.4-0.1,0.6-0.2c0.2,0,0.3,0,0.4,0c0.2,0,0.3,0,0.5,0.1
            c0.2,0,0.3,0.1,0.6,0.3c1.6,0.9,3.3,1.7,5,2.6c1.7,0.9,3.3,1.6,4.7,2.3c1.5,0.7,2.7,1.3,3.8,1.8s1.8,0.8,2.2,1
            c0.2-0.6,0.4-1.2,0.5-1.8c0.1-0.6,0.1-1.2,0.1-1.8c0-0.5,0-0.9-0.1-1.3s-0.2-0.7-0.3-0.9c-0.1-0.2-0.2-0.4-0.3-0.6
            c-0.1-0.1-0.1-0.3-0.1-0.4c0-0.1,0.1-0.2,0.4-0.3c0.2-0.1,0.5-0.1,0.8-0.2c0.3,0,0.6-0.1,1-0.1c0.3,0,0.6,0,0.9,0
            c0.4,0,0.7,0.1,0.8,0.2c0.1,0.1,0.2,0.2,0.2,0.4c0,0.1-0.1,0.3-0.2,0.6c-0.1,0.3-0.3,0.7-0.5,1.2c-0.2,0.5-0.3,1.1-0.5,1.8
            c-0.1,0.7-0.2,1.6-0.2,2.6c0,0.3,0,0.6,0,1s0,0.7,0,1.1c0,0.1-0.1,0.3-0.4,0.4c-0.3,0.1-0.5,0.3-0.9,0.4c-0.3,0.1-0.6,0.2-0.9,0.3
            c-0.3,0.1-0.5,0.1-0.6,0.1c-0.1,0-0.3-0.1-0.4-0.2s-0.2-0.3-0.4-0.5c-0.1-0.2-0.3-0.4-0.6-0.7c-0.3-0.3-0.6-0.5-1.1-0.8
            c-1.1-0.6-2.2-1.1-3.4-1.7c-1.2-0.6-2.2-1.1-3.3-1.5c-1-0.5-1.9-0.9-2.8-1.3c-0.8-0.4-1.4-0.7-1.9-0.9c-0.1,0.5-0.2,1.1-0.2,1.6
            c-0.1,0.6-0.1,1.1-0.1,1.6s0,1,0,1.5s0,0.8,0,1.1c0,0.3,0,0.5,0,0.8c0,0.3,0,0.5,0,0.6c0,0.1,0,0.2-0.1,0.3s-0.3,0.2-0.6,0.2
            c-0.7,0.1-1.2,0.1-1.5,0.2c-0.3,0-0.7,0.1-1,0.1c-0.5,0-0.8-0.1-0.8-0.3c0-0.1,0.1-0.2,0.2-0.3c0.1-0.1,0.3-0.2,0.5-0.4
            c0.2-0.1,0.4-0.3,0.5-0.6c0.2-0.2,0.3-0.5,0.3-0.9l0.5-4.6C286.6,205.4,286.6,205.1,286.6,204.9L286.6,204.9z"/>
    <path fill="#EFFFEF" d="M314.7,211.3c0.2-0.1,0.4-0.2,0.7-0.4c0.3-0.1,0.5-0.2,0.8-0.3c0.3-0.1,0.5-0.1,0.6-0.1c0.1,0,0.3,0,0.5,0
            c0.2,0,0.4,0,0.5,0.1c0.7,0.2,1.1,0.3,1.3,0.4c0.2,0.1,0.3,0.2,0.3,0.3c0,0.1-0.1,0.3-0.3,0.4c-0.2,0.1-0.5,0.3-0.7,0.4
            c-0.3,0.1-0.5,0.2-0.8,0.3c-0.3,0.1-0.4,0.1-0.5,0.1s-0.3,0-0.6-0.1c-0.3,0-0.8-0.2-1.6-0.4c-0.3-0.1-0.5-0.2-0.5-0.4
            C314.3,211.5,314.4,211.5,314.7,211.3L314.7,211.3z"/>
    <path fill="#EFFFEF" d="M331.5,209.2c0,0.5,0,0.9,0,1.3c0,0.5,0.1,0.8,0.3,0.9s0.601,0.2,1.101,0.2c1.3,0,2.5-0.1,3.6-0.2
            s2-0.4,2.8-0.8s1.4-0.9,1.8-1.6c0.4-0.7,0.601-1.6,0.601-2.6c0-0.8-0.3-1.4-0.9-2c-0.6-0.5-1.3-0.9-2.2-1.3
            c-0.8-0.3-1.6-0.5-2.399-0.7c-0.8-0.1-1.4-0.2-1.8-0.2c-0.5,0-1,0-1.5,0.1c-0.601,0.1-1,0.2-1.301,0.3v5.3
            C331.5,208.3,331.5,208.8,331.5,209.2L331.5,209.2z M331.8,212.6c-0.3,0-0.5,0-0.7,0l-2.3-0.1c-0.5,0-0.8-0.1-1-0.1
            s-0.3-0.1-0.3-0.2c0-0.1,0.1-0.2,0.2-0.2c0.1,0,0.3-0.1,0.399-0.2c0.2-0.1,0.301-0.2,0.4-0.3s0.2-0.3,0.3-0.6
            c0.101-0.7,0.2-1.5,0.2-2.3c0.1-0.8,0.1-1.5,0.1-2.2c0-0.3,0-0.6-0.1-0.9c0-0.3-0.1-0.6-0.2-0.9c-0.1-0.3-0.1-0.6-0.2-0.9
            c-0.1-0.3-0.199-0.5-0.3-0.7c-0.1-0.1-0.2-0.2-0.399-0.2c-0.2,0-0.4,0-0.5,0c-0.2,0-0.301,0-0.5-0.1c-0.2,0-0.2-0.1-0.2-0.3
            c0-0.2,0.1-0.3,0.3-0.4s0.7-0.2,1.4-0.3l2.899-0.4c0.601-0.1,1.101-0.1,1.5-0.2c0.4-0.1,0.7,0,0.9,0c0.1,0,0.399,0,1,0
            c0.6,0,1.3,0.1,2.1,0.2c0.8,0.1,1.7,0.2,2.7,0.4c0.9,0.2,1.8,0.5,2.6,0.8c0.801,0.3,1.5,0.8,2,1.3s0.801,1.1,0.801,1.8
            c0,0.6,0,1.2-0.101,1.7c-0.1,0.5-0.2,0.9-0.399,1.3c-0.2,0.4-0.5,0.7-0.801,1.1c-0.3,0.3-0.8,0.6-1.3,0.9c-0.3,0.2-0.7,0.4-1.3,0.5
            c-0.5,0.2-1.1,0.3-1.8,0.5c-0.7,0.1-1.3,0.3-2,0.4s-1.3,0.2-1.9,0.3c-0.6,0.1-1.1,0.1-1.6,0.2c-0.4,0-0.8,0.1-0.9,0.1
            C332.3,212.7,332,212.6,331.8,212.6L331.8,212.6z"/>
    <path fill="#EFFFEF" d="M365.8,206.7c0,0-0.1,0.1-0.2,0.2c-0.199,0.1-0.3,0.2-0.6,0.3c-0.3,0.1-0.4,0.2-0.6,0.2
            c-0.2,0.1-0.4,0.1-0.5,0.1c-1.301,0.1-2.4,0.1-3.5,0.1c-1.101,0-2,0-2.9,0c0,1.5,0.7,2.6,2,3.4s3.4,1.1,6.3,1.1c0.601,0,1,0,1.2,0.1
            c0.2,0.1,0.3,0.2,0.3,0.3s-0.2,0.2-0.6,0.3c-0.4,0.1-1.2,0.1-2.2,0.1c-1.6,0-2.9-0.1-4.1-0.2c-1.101-0.2-2-0.4-2.801-0.6
            c-0.8-0.3-1.3-0.6-1.8-0.9c-0.399-0.3-0.8-0.7-1-1.1s-0.399-0.8-0.399-1.1c-0.101-0.4-0.101-0.8-0.101-1.1c0-1.2,0.3-2.3,0.8-3.1
            c0.5-0.8,1.2-1.5,2-2c0.801-0.5,1.801-0.9,2.9-1.1c1.1-0.2,2.2-0.3,3.4-0.3c1.199,0,2,0,2.399,0.1s0.601,0.2,0.601,0.4
            c0,0.3-0.301,0.4-0.801,0.4h-2.5c-0.699,0-1.3,0.1-1.899,0.2c-0.601,0.1-1.2,0.4-1.7,0.7c-0.5,0.3-1,0.8-1.3,1.4
            c-0.4,0.6-0.601,1.4-0.7,2.3c0.2-0.1,0.5-0.2,0.8-0.2c0.3-0.1,0.7-0.1,1.101-0.1h5.6C365.5,206.5,365.8,206.6,365.8,206.7
            L365.8,206.7L365.8,206.7z"/>
    <path fill="#EFFFEF" d="M237.9,179.5c0.9-0.7,1.6-1.2,2-1.5c0.5-0.3,0.8-0.6,1-0.7c0.2-0.1,0.4-0.1,0.6-0.1s0.4,0,0.7,0
            c0.3,0,0.6,0.1,0.9,0.1c0.3,0,0.5,0.1,0.8,0.1c0.2,0,0.3,0.1,0.3,0.1c0,0.1,0,0.3-0.1,0.4c0,0.1-0.1,0.2-0.1,0.3
            c0,0.4,0.1,0.9,0.3,1.5c0.2,0.6,0.4,1.2,0.7,1.9c0.3,0.7,0.6,1.4,1,2.1c0.3,0.7,0.7,1.3,1,1.9s0.5,2.4,0.7,2.8
            c0.2,0.4,0.3,0.6,0.3,0.7s-0.1,0.1-0.3,0.2c-0.2,0.1-0.5,0.1-0.8,0.2c-0.3,0-0.6,0.1-0.8,0.1c-0.3,0-0.4,0-0.5,0
            c-0.3,0-0.4,0-0.5-0.1c-0.1,0-0.2-0.2-0.2-0.3c-0.2-0.8-0.5-3-0.8-3.8c-0.3-0.8-0.6-1.6-0.9-2.4c-0.3-0.8-0.6-1.5-0.9-2.2
            c-0.3-0.7-0.6-1.4-0.8-2c-1.8,1.3-3.3,2.3-4.4,3c-1.1,0.8-1.9,1.4-2.5,1.8c-0.6,0.5-1,0.8-1.1,1c-0.2,0.2-0.3,0.4-0.3,0.6
            c0,0.2-0.1,0.4-0.3,0.4c-0.2,0.1-0.5,0.1-0.9,0.1s-0.7,0-0.8-0.1c-0.2-0.1-0.4-0.2-0.6-0.5c-0.1-0.1-0.3-0.3-0.7-0.6s-0.8-0.6-1.3-1
            s-1.1-0.7-1.7-1.2s-1.2-0.8-1.8-1.2s-1.1-0.7-1.6-1.1c-0.5-0.3-0.9-0.6-1.1-0.8c-0.1,0.1-0.2,0.4-0.4,0.9c-0.2,0.4-0.4,0.9-0.7,1.5
            c-0.3,0.6-0.5,1.2-0.8,1.8s-0.5,1.2-0.7,1.8c-0.2,0.5-0.4,1-0.5,1.4c-0.1,0.4-0.2,0.6-0.2,0.7c0,0.1,0,0.2,0.1,0.3
            c0.1,0.1,0.1,0.2,0.1,0.3c0,0-0.1,0.1-0.2,0.1s-0.3,0.1-0.6,0.1c-0.7,0-1.3,0-1.8-0.1s-0.8-0.2-0.8-0.4c0-0.1,0.1-0.2,0.2-0.4
            c0.1-0.2,0.3-0.4,0.6-0.8c0.1-0.2,0.3-0.5,0.6-0.9c0.3-0.4,0.5-0.9,0.8-1.5c0.3-0.6,0.6-1.1,0.9-1.7c0.3-0.6,0.6-1.2,0.8-1.7
            c0.2-0.5,0.4-1,0.6-1.5c0.2-0.4,0.2-0.7,0.2-0.9c0-0.2-0.1-0.4-0.2-0.4c-0.1-0.1-0.2-0.2-0.2-0.3s0.2-0.2,0.6-0.3
            c0.4,0,0.9-0.1,1.5-0.1c0.5,0,0.8,0,0.9,0.1c0.2,0,0.3,0.1,0.3,0.3c0.1,0.2,0.3,0.4,0.7,0.8c0.4,0.3,0.9,0.7,1.4,1.1
            c0.6,0.4,1.2,0.9,1.8,1.3c0.7,0.5,1.3,0.9,1.9,1.3c0.6,0.4,1.2,0.8,1.7,1.1c0.5,0.3,0.9,0.6,1.1,0.7l2.4-1.7
            C235.8,181,237.1,180.1,237.9,179.5L237.9,179.5z"/>
    <path fill="#EFFFEF" d="M268,179.5c0.9-0.7,1.6-1.2,2-1.5c0.5-0.3,0.8-0.6,1-0.7c0.2-0.1,0.4-0.1,0.6-0.1c0.2,0,0.4,0,0.7,0
            c0.3,0,0.6,0.1,0.9,0.1c0.3,0,0.5,0.1,0.8,0.1c0.2,0,0.3,0.1,0.3,0.1c0,0.1,0,0.3-0.1,0.4c0,0.1-0.1,0.2-0.1,0.3
            c0,0.4,0.1,0.9,0.3,1.5c0.2,0.6,0.4,1.2,0.7,1.9c0.3,0.7,0.6,1.4,1,2.1c0.3,0.7,0.7,1.3,1,1.9c0.3,0.6,0.5,1.1,0.7,1.4
            c0.2,0.4,0.3,0.6,0.3,0.7c0,0.1-0.1,0.1-0.3,0.2c-0.2,0.1-0.5,0.1-0.8,0.2s-0.6,0.1-0.8,0.1c-0.3,0-0.4,0-0.5,0
            c-0.3,0-0.4,0-0.5-0.1c-0.1,0-0.2-0.2-0.2-0.3c-0.2-0.8-0.5-1.7-0.8-2.5c-0.3-0.8-0.6-1.6-0.9-2.4c-0.3-0.8-0.6-1.5-0.9-2.2
            c-0.3-0.7-0.6-1.4-0.8-2c-1.8,1.3-3.3,2.3-4.4,3c-1.1,0.7-1.9,1.4-2.5,1.8c-0.6,0.5-1,0.8-1.1,1c-0.2,0.2-0.3,0.4-0.3,0.6
            c0,0.2-0.1,0.4-0.3,0.4c-0.2,0-0.5,0.1-0.9,0.1s-0.7,0-0.8-0.1c-0.1-0.1-0.4-0.2-0.6-0.5c-0.1-0.1-0.3-0.3-0.7-0.6
            c-0.4-0.3-0.8-0.6-1.3-1s-1.1-0.7-1.7-1.2s-1.2-0.8-1.8-1.2s-1.1-0.7-1.6-1.1c-0.5-0.3-0.9-0.6-1.1-0.8c-0.1,0.1-0.2,0.4-0.4,0.9
            c-0.2,0.4-0.4,0.9-0.7,1.5c-0.3,0.6-0.5,1.2-0.8,1.8c-0.3,0.6-0.5,1.2-0.7,1.8c-0.2,0.6-0.4,1-0.5,1.4s-0.2,2-0.2,2
            c0,0.1,0,0.2,0.1,0.3c0.1,0.1,0.1,0.2,0.1,0.3s-0.1,0.1-0.2,0.1s-0.3,0.1-0.6,0.1c-0.7,0-1.3,0-1.8-0.1c-0.5-0.1-0.8-0.2-0.8-0.4
            c0-0.1,0.1-0.2,0.2-0.4c0.1-0.2,0.3-1.8,0.6-2.1c0.1-0.2,0.3-0.5,0.6-0.9c0.3-0.4,0.5-0.9,0.8-1.5c0.3-0.6,0.6-1.1,0.9-1.7
            c0.3-0.6,0.6-1.2,0.8-1.7c0.2-0.5,0.4-1,0.6-1.5c0.2-0.4,0.2-0.7,0.2-0.9c0-0.2-0.1-0.4-0.2-0.4c-0.1-0.1-0.2-0.2-0.2-0.3
            s0.2-0.2,0.6-0.3c0.4,0,0.9-0.1,1.5-0.1c0.5,0,0.8,0,0.9,0.1c0.2,0,0.3,0.1,0.3,0.3c0.1,0.2,0.3,0.4,0.7,0.8
            c0.4,0.3,0.9,0.7,1.4,1.1c0.6,0.4,1.2,0.9,1.8,1.3c0.7,0.5,1.3,0.9,1.9,1.3s1.2,0.8,1.7,1.1s0.9,0.6,1.1,0.7l2.4-1.7
            C265.9,181,267.1,180.1,268,179.5L268,179.5z"/>
    <path fill="#EFFFEF" d="M226.4,188.8c0.6,0.4,1.8,0.8,3.5,1.3c1.7,0.4,4,0.8,7,1.1c2.9,0.3,6.7,0.5,11.3,0.5c1.9,0,4.1-0.1,6.5-0.1
            c2.4-0.1,4.7-0.3,6.8-0.6c2.2-0.3,3.9-0.6,5.4-1.1c1.4-0.5,2.1-1.3,2.1-2c0-0.8-43.5-0.6-43.5-0.1
            C225.5,187.9,225.8,188.4,226.4,188.8L226.4,188.8z M278.1,187.8c0,0.8-0.9,1.5-2.8,2.2c-1.9,0.6-4.4,1.2-7.5,1.6
            c-3.1,0.4-6.7,0.8-10.7,1c-4,0.2-8.2,0.3-12.5,0.3c-3.4,0-6.8-0.1-10.3-0.3c-3.5-0.2-6.6-0.5-9.4-0.9c-2.8-0.4-5-0.9-6.7-1.5
            c-1.7-0.6-2.6-1.8-2.6-2.6C215.6,186.7,278.1,186.2,278.1,187.8z"/>
    </svg>
