<svg enable-background="new 0 0 129.668 140.893" height="140.893" viewBox="0 0 129.668 140.893" width="129.668" xmlns="http://www.w3.org/2000/svg"><path d="m123.236.853c-.246.141-.455.278-.671.424-.081.021-.179.028-.239.063-5.615 3.438-12.457 7.446-20.526 12.015-8.063 4.57-16.97 9.521-26.696 14.854-9.73 5.336-20.096 10.894-31.104 16.684-11 5.777-22.234 11.606-33.715 17.474-2.688 1.419-4.568 2.271-5.646 2.575-1.067.299-2.817 1.726-2.97 1.851-.719.604-1.067 1.729-1.049 3.392.021 1.658.348 2.857.978 3.612.394.468 1.123.854 2.188 1.149 1.078.301 2.959 1.153 5.647 2.573 11.479 5.863 22.715 11.693 33.715 17.476 11.007 5.789 21.373 11.347 31.102 16.685 9.73 5.326 18.635 10.277 26.698 14.852 8.071 4.566 14.914 8.576 20.528 12.017.229.119 2.378 1.483 2.475 1.52.496.189 1.146.25 1.959.183.815-.078 1.416-.173 1.801-.283.861-.189 1.476-.734 1.83-1.646.135-.34.158-.924.09-1.737-.071-.82-.18-1.781-.311-2.884-.027-1.065-.108-3.521-.233-7.379-.12-3.854-.229-8.6-.341-14.225-.101-5.625-.226-11.854-.365-18.672-.143-6.816-.229-13.722-.254-20.697-.026-6.969-.026-13.803.006-20.49.031-6.69.134-12.69.298-18.018.219-8.322.36-14.934.424-19.838.063-4.771.357-8.408.16-9.103-.087-.395-.011-.965-.333-1.72-.021-.048-.331-1.363-.499-1.738-.396-.875-.875-1.431-1.466-1.657-.878-.361-2.037-.126-3.481.688zm-1.662 45.248c.196 12.434.293 24.193.274 35.291-.009 11.098-.084 21.283-.229 30.555-.093 6.279-.229 11.929-.412 16.972-1.074-.543-2.433-1.228-4.081-2.062-3.438-1.744-7.651-3.92-12.646-6.522-4.981-2.607-10.508-5.484-16.563-8.632-6.052-3.146-12.146-6.38-18.278-9.705-6.127-3.313-12.125-6.593-17.979-9.829-5.854-3.234-11.074-6.203-15.668-8.898-7.197-4.184-12.931-7.479-17.203-9.884-2.215-1.249-4.17-2.319-5.875-3.227 1.896-.986 4.131-2.208 6.728-3.67 4.272-2.403 10.008-5.702 17.205-9.886 4.592-2.696 9.812-5.661 15.666-8.897 5.854-3.235 11.853-6.517 17.979-9.83 6.135-3.325 12.229-6.559 18.278-9.704 6.055-3.146 11.578-6.021 16.563-8.632 4.989-2.604 9.202-4.779 12.646-6.521 1.079-.547 2.021-1.021 2.854-1.439.308 11.692.555 23.205.741 34.52z" fill="#efffef"/></svg>