<?xml version="1.0" encoding="utf-8"?>
<!DOCTYPE svg PUBLIC "-//W3C//DTD SVG 1.1//EN" "http://www.w3.org/Graphics/SVG/1.1/DTD/svg11.dtd">
<svg version="1.1" xmlns="http://www.w3.org/2000/svg" xmlns:xlink="http://www.w3.org/1999/xlink" x="0px" y="0px"
	 width="129.668px" height="140.893px" viewBox="0 0 129.668 140.893" enable-background="new 0 0 129.668 140.893"
	 xml:space="preserve">
<path fill="#E9FFE5" d="M123.236,0.853c-0.246,0.141-0.455,0.278-0.671,0.424c-0.081,0.021-0.179,0.028-0.239,0.063
	c-5.615,3.438-12.457,7.446-20.526,12.015c-8.063,4.57-16.97,9.521-26.696,14.854C65.374,33.545,55.008,39.103,44,44.893
	C33,50.67,21.766,56.499,10.285,62.367c-2.688,1.419-4.568,2.271-5.646,2.575c-1.067,0.299-2.817,1.726-2.97,1.851
	c-0.719,0.604-1.067,1.729-1.049,3.392c0.021,1.658,0.348,2.857,0.978,3.612c0.394,0.468,1.123,0.854,2.188,1.149
	c1.078,0.301,2.959,1.153,5.647,2.573c11.479,5.863,22.715,11.693,33.715,17.476c11.007,5.789,21.373,11.347,31.102,16.685
	c9.73,5.326,18.635,10.277,26.698,14.852c8.071,4.566,14.914,8.576,20.528,12.017c0.229,0.119,2.378,1.483,2.475,1.52
	c0.496,0.189,1.146,0.25,1.959,0.183c0.815-0.078,1.416-0.173,1.801-0.283c0.861-0.189,1.476-0.734,1.83-1.646
	c0.135-0.34,0.158-0.924,0.09-1.737c-0.071-0.82-0.18-1.781-0.311-2.884c-0.027-1.065-0.108-3.521-0.233-7.379
	c-0.12-3.854-0.229-8.6-0.341-14.225c-0.101-5.625-0.226-11.854-0.365-18.672c-0.143-6.816-0.229-13.722-0.254-20.697
	c-0.026-6.969-0.026-13.803,0.006-20.49c0.031-6.69,0.134-12.69,0.298-18.018c0.219-8.322,0.36-14.934,0.424-19.838
	c0.063-4.771,0.357-8.408,0.16-9.103c-0.087-0.395-0.011-0.965-0.333-1.72c-0.021-0.048-0.331-1.363-0.499-1.738
	c-0.396-0.875-0.875-1.431-1.466-1.657C125.839-0.196,124.68,0.039,123.236,0.853z M121.574,46.101
	c0.196,12.434,0.293,24.193,0.274,35.291c-0.009,11.098-0.084,21.283-0.229,30.555c-0.093,6.279-0.229,11.929-0.412,16.972
	c-1.074-0.543-2.433-1.228-4.081-2.062c-3.438-1.744-7.651-3.92-12.646-6.522c-4.981-2.607-10.508-5.484-16.563-8.632
	c-6.052-3.146-12.146-6.38-18.278-9.705c-6.127-3.313-12.125-6.593-17.979-9.829c-5.854-3.234-11.074-6.203-15.668-8.898
	c-7.197-4.184-12.931-7.479-17.203-9.884c-2.215-1.249-4.17-2.319-5.875-3.227c1.896-0.986,4.131-2.208,6.728-3.67
	c4.272-2.403,10.008-5.702,17.205-9.886c4.592-2.696,9.812-5.661,15.666-8.897c5.854-3.235,11.853-6.517,17.979-9.83
	c6.135-3.325,12.229-6.559,18.278-9.704c6.055-3.146,11.578-6.021,16.563-8.632c4.989-2.604,9.202-4.779,12.646-6.521
	c1.079-0.547,2.021-1.021,2.854-1.439C121.141,23.273,121.388,34.786,121.574,46.101z"/>
</svg>
