<?xml version="1.0" encoding="utf-8"?>
<!DOCTYPE svg PUBLIC "-//W3C//DTD SVG 1.1//EN" "http://www.w3.org/Graphics/SVG/1.1/DTD/svg11.dtd">
<svg version="1.1" xmlns="http://www.w3.org/2000/svg" xmlns:xlink="http://www.w3.org/1999/xlink" x="0px" y="0px"
	 width="129.07px" height="140.479px" viewBox="-242.604 352.504 129.07 140.479"
	 enable-background="new -242.604 352.504 129.07 140.479" xml:space="preserve">
<path fill="#E9FFE5" d="M-236.111,491.969c0.246-0.14,0.455-0.278,0.67-0.424c0.081-0.02,0.179-0.028,0.24-0.063
	c5.615-3.438,12.457-7.446,20.526-12.015c8.064-4.57,16.97-9.521,26.696-14.853c9.73-5.337,20.096-10.895,31.104-16.685
	c11-5.777,22.233-11.606,33.715-17.475c2.688-1.419,4.568-2.271,5.646-2.575c1.068-0.299,2.818-1.725,2.97-1.85
	c0.719-0.604,1.067-1.729,1.049-3.392c-0.021-1.658-0.348-2.857-0.978-3.612c-0.393-0.468-1.123-0.854-2.188-1.15
	c-1.078-0.301-2.959-1.153-5.648-2.573c-11.479-5.863-22.715-11.693-33.715-17.476c-11.006-5.789-21.373-11.346-31.101-16.684
	c-9.731-5.326-18.635-10.277-26.698-14.852c-8.072-4.566-14.914-8.576-20.529-12.015c-0.229-0.119-2.378-1.485-2.474-1.521
	c-0.496-0.189-1.146-0.25-1.959-0.181c-0.816,0.078-1.416,0.171-1.801,0.283c-0.861,0.189-1.476,0.734-1.83,1.646
	c-0.135,0.34-0.158,0.924-0.09,1.737c0.071,0.82,0.18,1.781,0.311,2.884c0.027,1.065,0.108,3.521,0.233,7.379
	c0.12,3.854,0.229,8.6,0.341,14.225c0.1,5.625,0.225,11.853,0.365,18.672c0.143,6.816,0.229,13.721,0.254,20.697
	c0.026,6.969,0.026,13.803-0.006,20.489c-0.031,6.691-0.134,12.691-0.298,18.019c-0.219,8.321-0.36,14.934-0.424,19.837
	c-0.063,4.771-0.357,8.409-0.16,9.103c0.087,0.395,0.011,0.965,0.333,1.719c0.021,0.048,0.331,1.363,0.499,1.738
	c0.396,0.875,0.875,1.431,1.466,1.658C-238.714,493.018-237.556,492.782-236.111,491.969z M-234.448,446.722
	c-0.197-12.435-0.293-24.194-0.275-35.292c0.009-11.097,0.084-21.282,0.229-30.554c0.093-6.279,0.229-11.929,0.412-16.972
	c1.074,0.543,2.432,1.228,4.081,2.062c3.438,1.744,7.651,3.92,12.645,6.522c4.982,2.607,10.508,5.484,16.563,8.631
	c6.052,3.146,12.146,6.38,18.278,9.705c6.127,3.313,12.125,6.593,17.979,9.83c5.854,3.234,11.074,6.203,15.668,8.898
	c7.197,4.184,12.93,7.479,17.203,9.884c2.215,1.249,4.17,2.319,5.875,3.226c-1.896,0.987-4.131,2.208-6.728,3.67
	c-4.272,2.404-10.008,5.702-17.205,9.886c-4.592,2.696-9.811,5.661-15.666,8.898c-5.854,3.235-11.852,6.516-17.979,9.83
	c-6.135,3.325-12.229,6.558-18.279,9.704c-6.054,3.146-11.578,6.021-16.562,8.632c-4.989,2.604-9.202,4.779-12.646,6.521
	c-1.079,0.547-2.021,1.021-2.854,1.44C-234.017,469.55-234.264,458.035-234.448,446.722z"/>
</svg>
