<svg enable-background="new 322.641 164.781 140.297 129.063" height="129.063" viewBox="322.641 164.781 140.297 129.063" width="140.297" xmlns="http://www.w3.org/2000/svg"><path d="m462.074 287.41c-.14-.246-.281-.455-.422-.67-.021-.081-.032-.18-.063-.24-3.438-5.615-7.446-12.457-12.013-20.527-4.572-8.065-9.523-16.969-14.853-26.698-5.337-9.729-10.894-20.096-16.683-31.102-5.779-10.999-11.607-22.235-17.475-33.714-1.42-2.69-2.272-4.57-2.573-5.648-.3-1.068-1.726-2.819-1.851-2.967-.604-.72-1.73-1.071-3.391-1.05s-2.859.346-3.613.976c-.467.393-.853 1.123-1.15 2.191-.301 1.078-1.154 2.958-2.574 5.648-5.865 11.479-11.694 22.715-17.475 33.714-5.789 11.006-11.346 21.373-16.683 31.102-5.328 9.731-10.278 18.634-14.853 26.698-4.565 8.072-8.574 14.914-12.012 20.529-.119.231-1.488 2.377-1.522 2.474-.19.496-.249 1.146-.179 1.959.076.815.17 1.416.281 1.801.192.861.737 1.474 1.648 1.83.34.134.924.158 1.738.089.82-.072 1.781-.179 2.884-.31 1.065-.027 3.521-.109 7.379-.234 3.854-.12 8.597-.229 14.224-.34 5.623-.101 11.852-.226 18.672-.366 6.817-.142 13.719-.229 20.697-.253 6.967-.028 13.801-.028 20.49.005 6.689.032 12.692.133 18.016.297 8.321.219 14.934.362 19.837.424 4.773.063 8.409.358 9.104.16.392-.086.962-.01 1.716-.334.047-.021 1.367-.33 1.742-.498.873-.394 1.426-.875 1.657-1.465.347-.877.114-2.036-.7-3.481z" fill="#efffef"/></svg>