<?xml version="1.0" encoding="utf-8"?>
<!DOCTYPE svg PUBLIC "-//W3C//DTD SVG 1.1//EN" "http://www.w3.org/Graphics/SVG/1.1/DTD/svg11.dtd">
<svg version="1.1" xmlns="http://www.w3.org/2000/svg" xmlns:xlink="http://www.w3.org/1999/xlink" x="0px" y="0px"
	 width="140.297px" height="129.063px" viewBox="322.641 164.781 140.297 129.063"
	 enable-background="new 322.641 164.781 140.297 129.063" xml:space="preserve">
<path fill="#336633" d="M462.074,287.41c-0.14-0.246-0.281-0.455-0.422-0.67c-0.021-0.081-0.032-0.18-0.063-0.24
	c-3.438-5.615-7.446-12.457-12.013-20.527c-4.572-8.065-9.523-16.969-14.853-26.698c-5.337-9.729-10.894-20.096-16.683-31.102
	c-5.779-10.999-11.607-22.235-17.475-33.714c-1.42-2.69-2.272-4.57-2.573-5.648c-0.3-1.068-1.726-2.819-1.851-2.967
	c-0.604-0.72-1.73-1.071-3.391-1.05s-2.859,0.346-3.613,0.976c-0.467,0.393-0.853,1.123-1.15,2.191
	c-0.301,1.078-1.154,2.958-2.574,5.648c-5.865,11.479-11.694,22.715-17.475,33.714c-5.789,11.006-11.346,21.373-16.683,31.102
	c-5.328,9.731-10.278,18.634-14.853,26.698c-4.565,8.072-8.574,14.914-12.012,20.529c-0.119,0.231-1.488,2.377-1.522,2.474
	c-0.19,0.496-0.249,1.146-0.179,1.959c0.076,0.815,0.17,1.416,0.281,1.801c0.192,0.861,0.737,1.474,1.648,1.83
	c0.34,0.134,0.924,0.158,1.738,0.089c0.82-0.072,1.781-0.179,2.884-0.31c1.065-0.027,3.521-0.109,7.379-0.234
	c3.854-0.12,8.597-0.229,14.224-0.34c5.623-0.101,11.852-0.226,18.672-0.366c6.817-0.142,13.719-0.229,20.697-0.253
	c6.967-0.028,13.801-0.028,20.49,0.005c6.689,0.032,12.692,0.133,18.016,0.297c8.321,0.219,14.934,0.362,19.837,0.424
	c4.773,0.063,8.409,0.358,9.104,0.16c0.392-0.086,0.962-0.01,1.716-0.334c0.047-0.021,1.367-0.33,1.742-0.498
	c0.873-0.394,1.426-0.875,1.657-1.465C463.121,290.014,462.888,288.855,462.074,287.41z"/>
</svg>
