<svg enable-background="new -242.604 352.504 129.07 140.479" height="140.479" viewBox="-242.604 352.504 129.07 140.479" width="129.07" xmlns="http://www.w3.org/2000/svg"><path d="m-236.111 491.969c.246-.14.455-.278.67-.424.081-.02.179-.028.24-.063 5.615-3.438 12.457-7.446 20.526-12.015 8.064-4.57 16.97-9.521 26.696-14.853 9.73-5.337 20.096-10.895 31.104-16.685 11-5.777 22.233-11.606 33.715-17.475 2.688-1.419 4.568-2.271 5.646-2.575 1.068-.299 2.818-1.725 2.97-1.85.719-.604 1.067-1.729 1.049-3.392-.021-1.658-.348-2.857-.978-3.612-.393-.468-1.123-.854-2.188-1.15-1.078-.301-2.959-1.153-5.648-2.573-11.479-5.863-22.715-11.693-33.715-17.476-11.006-5.789-21.373-11.346-31.101-16.684-9.731-5.326-18.635-10.277-26.698-14.852-8.072-4.566-14.914-8.576-20.529-12.015-.229-.119-2.378-1.485-2.474-1.521-.496-.189-1.146-.25-1.959-.181-.816.078-1.416.171-1.801.283-.861.189-1.476.734-1.83 1.646-.135.34-.158.924-.09 1.737.071.82.18 1.781.311 2.884.027 1.065.108 3.521.233 7.379.12 3.854.229 8.6.341 14.225.1 5.625.225 11.853.365 18.672.143 6.816.229 13.721.254 20.697.026 6.969.026 13.803-.006 20.489-.031 6.691-.134 12.691-.298 18.019-.219 8.321-.36 14.934-.424 19.837-.063 4.771-.357 8.409-.16 9.103.087.395.011.965.333 1.719.021.048.331 1.363.499 1.738.396.875.875 1.431 1.466 1.658.878.359 2.036.123 3.481-.69zm1.663-45.247c-.197-12.435-.293-24.194-.275-35.292.009-11.097.084-21.282.229-30.554.093-6.279.229-11.929.412-16.972 1.074.543 2.432 1.228 4.081 2.062 3.438 1.744 7.651 3.92 12.645 6.522 4.982 2.607 10.508 5.484 16.563 8.631 6.052 3.146 12.146 6.38 18.278 9.705 6.127 3.313 12.125 6.593 17.979 9.83 5.854 3.234 11.074 6.203 15.668 8.898 7.197 4.184 12.93 7.479 17.203 9.884 2.215 1.249 4.17 2.319 5.875 3.226-1.896.987-4.131 2.208-6.728 3.67-4.272 2.404-10.008 5.702-17.205 9.886-4.592 2.696-9.811 5.661-15.666 8.898-5.854 3.235-11.852 6.516-17.979 9.83-6.135 3.325-12.229 6.558-18.279 9.704-6.054 3.146-11.578 6.021-16.562 8.632-4.989 2.604-9.202 4.779-12.646 6.521-1.079.547-2.021 1.021-2.854 1.44-.308-11.693-.555-23.208-.739-34.521z" fill="#e9ffe5"/></svg>