<svg enable-background="new 147.352 164.795 140.318 129.145" height="129.145" viewBox="147.352 164.795 140.318 129.145" width="140.318" xmlns="http://www.w3.org/2000/svg"><path d="m286.816 287.41c-.139-.246-.281-.455-.422-.67-.021-.081-.032-.18-.063-.24-3.438-5.615-7.446-12.457-12.013-20.527-4.572-8.065-9.523-16.969-14.852-26.698-5.337-9.729-10.894-20.096-16.683-31.102-5.779-10.999-11.608-22.235-17.474-33.714-1.419-2.69-2.273-4.57-2.575-5.648-.299-1.068-1.725-2.819-1.85-2.967-.603-.72-1.73-1.071-3.39-1.05s-2.859.346-3.614.976c-.466.393-.852 1.123-1.15 2.191-.301 1.078-1.154 2.958-2.574 5.648-5.865 11.479-11.694 22.715-17.474 33.714-5.789 11.006-11.346 21.373-16.683 31.102-5.328 9.731-10.279 18.634-14.852 26.698-4.566 8.072-8.575 14.914-12.013 20.529-.119.231-1.487 2.377-1.522 2.474-.19.496-.249 1.146-.179 1.959.077.815.17 1.416.282 1.801.192.861.737 1.474 1.648 1.83.34.134.924.158 1.738.089.821-.072 1.782-.179 2.884-.31 1.065-.027 3.52-.109 7.379-.234 3.855-.12 8.597-.229 14.223-.34 5.624-.101 11.852-.226 18.672-.366 6.818-.142 13.72-.229 20.698-.253 6.967-.028 13.801-.028 20.49.005 6.691.032 12.692.133 18.016.297 8.321.219 14.933.362 19.837.424 4.773.063 8.409.358 9.103.16.392-.086.962-.01 1.716-.334.047-.021 1.367-.33 1.742-.498.874-.394 1.427-.875 1.658-1.465.344-.877.11-2.036-.703-3.481zm-45.247-1.662c-12.434.197-24.196.293-35.292.275-11.097-.008-21.282-.084-30.553-.229-6.28-.093-11.928-.231-16.972-.412.544-1.075 1.228-2.432 2.062-4.081 1.743-3.441 3.92-7.654 6.522-12.645 2.609-4.982 5.486-10.508 8.632-16.561s6.379-12.146 9.704-18.282c3.315-6.128 6.593-12.125 9.83-17.979 3.237-5.855 6.203-11.074 8.9-15.667 4.182-7.197 7.479-12.93 9.884-17.204 1.249-2.215 2.32-4.169 3.223-5.875.988 1.895 2.208 4.132 3.67 6.726 2.405 4.274 5.702 10.007 9.884 17.204 2.697 4.593 5.663 9.812 8.9 15.667 3.237 5.854 6.515 11.851 9.83 17.979 3.325 6.135 6.558 12.228 9.704 18.278 3.146 6.055 6.022 11.578 8.632 16.563 2.603 4.989 4.779 9.202 6.522 12.645.545 1.078 1.021 2.021 1.441 2.854-11.695.312-23.21.559-34.523.744z" fill="#e9ffe5"/></svg>