<?xml version="1.0" encoding="utf-8"?>
<!DOCTYPE svg PUBLIC "-//W3C//DTD SVG 1.1//EN" "http://www.w3.org/Graphics/SVG/1.1/DTD/svg11.dtd" [
	<!ENTITY ns_flows "http://ns.adobe.com/Flows/1.0/">
]>
<svg version="1.1"
	 xmlns="http://www.w3.org/2000/svg" xmlns:xlink="http://www.w3.org/1999/xlink" xmlns:a="http://ns.adobe.com/AdobeSVGViewerExtensions/3.0/"
	 x="0px" y="0px" width="19px" height="10px" viewBox="81.877 246.018 19 10" enable-background="new 81.877 246.018 19 10"
	 xml:space="preserve">
<defs>
</defs>
<rect display="none" fill="#EFFFEF" width="640" height="477.536"/>
<path fill="#336633" d="M82.513,249.594c0.39-0.633,1.017-1.211,1.88-1.733c0.862-0.521,1.969-0.947,3.32-1.276
	c1.351-0.328,2.987-0.493,4.908-0.493c1.114,0,2.172,0.097,3.174,0.289c1.003,0.192,1.88,0.49,2.632,0.894
	c0.751,0.404,1.35,0.92,1.795,1.547c0.446,0.628,0.669,1.37,0.669,2.227c0,0.82-0.287,1.547-0.856,2.181
	c-0.571,0.634-1.331,1.165-2.277,1.593c-0.947,0.43-2.026,0.755-3.237,0.979c-1.21,0.224-2.471,0.336-3.779,0.336
	c-1.031,0-2.076-0.1-3.133-0.299c-1.059-0.198-2.006-0.494-2.841-0.885c-0.834-0.391-1.517-0.878-2.046-1.463
	c-0.529-0.584-0.793-1.26-0.793-2.031C81.928,250.85,82.123,250.228,82.513,249.594L82.513,249.594z"/>
</svg>
