<?xml version="1.0" encoding="utf-8"?>
<!DOCTYPE svg PUBLIC "-//W3C//DTD SVG 1.1//EN" "http://www.w3.org/Graphics/SVG/1.1/DTD/svg11.dtd">
<svg version="1.1" id="Ebene_1" xmlns="http://www.w3.org/2000/svg" xmlns:xlink="http://www.w3.org/1999/xlink" x="0px" y="0px"
	 width="287.121px" height="2.154px" viewBox="0 0 287.121 2.154" enable-background="new 0 0 287.121 2.154" xml:space="preserve">
<path fill="#336633" d="M286.665,0.916c-0.07-0.021-0.515-0.072-1.305-0.152c-0.803-0.077-1.648-0.156-2.547-0.232
	c-0.921-0.075-1.816-0.143-2.689-0.208c-0.87-0.063-1.566-0.097-2.092-0.099c-13.084,0.073-28.862,0.128-47.315,0.157
	c-18.453,0.034-38.724,0.052-60.809,0.055c-22.086,0.004-45.497-0.019-70.241-0.063c-24.729-0.046-49.916-0.107-75.563-0.19
	c-6.053-0.009-10.15-0.044-12.321-0.104c-2.149-0.058-3.79-0.06-4.925-0.01C5.04,0.155,3.327,0.359,1.705,0.69
	C0.086,1.019-0.378,1.283,0.304,1.482c0.458,0.136,1.561,0.245,3.3,0.333C5.349,1.906,8.825,1.968,14.04,2.005
	c5.227,0.034,12.709,0.045,22.469,0.028c9.76-0.013,22.919-0.046,39.481-0.096C86.584,1.9,98.528,1.877,111.845,1.872
	c13.313-0.011,26.916-0.011,40.782-0.002c13.892,0.006,27.625,0.025,41.194,0.059c13.574,0.032,25.971,0.061,37.164,0.084
	c11.196,0.021,20.632,0.049,28.308,0.076c7.682,0.026,12.565,0.048,14.688,0.054c2.192,0.03,4.104,0.054,5.739,0.069
	c1.62,0.018,2.781,0.011,3.459-0.021c1.812-0.081,2.896-0.221,3.28-0.417c0.221-0.088,0.406-0.225,0.559-0.408
	C287.158,1.177,287.042,1.031,286.665,0.916z"/>
</svg>
