<svg enable-background="new 0 -2.651 287.121 4.805" height="4.805" viewBox="0 -2.651 287.121 4.805" width="287.121" xmlns="http://www.w3.org/2000/svg"><path d="m286.665-.442c-.07-.041-.515-.146-1.305-.305-.803-.154-1.648-.312-2.547-.465-.921-.15-1.816-.287-2.689-.416-.87-.125-1.566-.194-2.092-.198-13.084.146-28.862.258-47.315.316-18.453.068-38.724.105-60.809.11-22.086.008-45.497-.037-70.241-.126-24.729-.094-49.916-.215-75.563-.382-6.053-.019-10.15-.089-12.321-.209-2.149-.116-3.79-.12-4.925-.021-1.818.169-3.531.579-5.153 1.243-1.619.659-2.083 1.19-1.401 1.589.458.272 1.561.492 3.3.667 1.745.182 5.221.305 10.436.38 5.227.068 12.709.09 22.469.057 9.76-.025 22.919-.092 39.481-.191 10.595-.075 22.538-.122 35.855-.131 13.313-.021 26.916-.021 40.782-.004 13.892.012 27.625.052 41.194.117 13.574.065 25.971.122 37.164.169 11.196.043 20.632.099 28.308.153 7.682.052 12.565.096 14.688.106 2.192.063 4.104.108 5.739.14 1.62.036 2.781.021 3.459-.043 1.812-.161 2.896-.442 3.28-.836.221-.176.406-.451.559-.818.14-.378.024-.672-.353-.902z" fill="#363"/></svg>