<?xml version="1.0" encoding="utf-8"?>
<!DOCTYPE svg PUBLIC "-//W3C//DTD SVG 1.1//EN" "http://www.w3.org/Graphics/SVG/1.1/DTD/svg11.dtd">
<svg version="1.1" xmlns="http://www.w3.org/2000/svg" xmlns:xlink="http://www.w3.org/1999/xlink" x="0px" y="0px"
	 width="287.121px" height="4.805px" viewBox="0 -2.651 287.121 4.805" enable-background="new 0 -2.651 287.121 4.805"
	 xml:space="preserve">
<path fill="#336633" d="M286.665-0.442c-0.07-0.041-0.515-0.146-1.305-0.305c-0.803-0.154-1.648-0.312-2.547-0.465
	c-0.921-0.15-1.816-0.287-2.689-0.416c-0.87-0.125-1.566-0.194-2.092-0.198C264.948-1.68,249.17-1.568,230.717-1.51
	c-18.453,0.068-38.724,0.105-60.809,0.11c-22.086,0.008-45.497-0.037-70.241-0.126C74.938-1.62,49.751-1.741,24.104-1.908
	c-6.053-0.019-10.15-0.089-12.321-0.209c-2.149-0.116-3.79-0.12-4.925-0.021C5.04-1.969,3.327-1.559,1.705-0.895
	C0.086-0.236-0.378,0.295,0.304,0.694c0.458,0.272,1.561,0.492,3.3,0.667c1.745,0.182,5.221,0.305,10.436,0.38
	c5.227,0.068,12.709,0.09,22.469,0.057c9.76-0.025,22.919-0.092,39.481-0.191c10.595-0.075,22.538-0.122,35.855-0.131
	c13.313-0.021,26.916-0.021,40.782-0.004c13.892,0.012,27.625,0.052,41.194,0.117c13.574,0.065,25.971,0.122,37.164,0.169
	c11.196,0.043,20.632,0.099,28.308,0.153c7.682,0.052,12.565,0.096,14.688,0.106c2.192,0.063,4.104,0.108,5.739,0.14
	c1.62,0.036,2.781,0.021,3.459-0.043c1.812-0.161,2.896-0.442,3.28-0.836c0.221-0.176,0.406-0.451,0.559-0.818
	C287.158,0.082,287.042-0.212,286.665-0.442z"/>
</svg>
