<?xml version="1.0" encoding="utf-8"?>
<!DOCTYPE svg PUBLIC "-//W3C//DTD SVG 1.1//EN" "http://www.w3.org/Graphics/SVG/1.1/DTD/svg11.dtd">
<svg version="1.1" xmlns="http://www.w3.org/2000/svg" xmlns:xlink="http://www.w3.org/1999/xlink" x="0px" y="0px"
	 width="144.243px" height="2.154px" viewBox="0 0 144.243 2.154" enable-background="new 0 0 144.243 2.154" xml:space="preserve">
<path fill="#336633" d="M144.031,0.865c-0.035-0.021-0.258-0.071-0.655-0.149c-0.403-0.077-0.828-0.154-1.28-0.229
	c-0.462-0.073-0.912-0.141-1.351-0.204c-0.437-0.062-0.787-0.095-1.05-0.097c-6.575,0.072-14.502,0.126-23.774,0.155
	c-9.271,0.033-19.456,0.051-30.553,0.053C74.272,0.398,62.509,0.377,50.076,0.333C37.652,0.287,24.997,0.227,12.111,0.146
	c-3.041-0.01-5.1-0.044-6.191-0.102c-1.08-0.057-1.904-0.059-2.474-0.01C2.532,0.116,1.671,0.317,0.857,0.642
	C0.043,0.966-0.19,1.226,0.153,1.422c0.23,0.133,0.784,0.24,1.658,0.327c0.877,0.089,2.623,0.149,5.243,0.186
	C9.68,1.969,13.44,1.979,18.343,1.964C23.247,1.95,29.859,1.918,38.18,1.869c5.323-0.037,11.324-0.06,18.016-0.065
	c6.688-0.009,13.523-0.009,20.49-0.002c6.979,0.006,13.88,0.025,20.697,0.058c6.82,0.031,13.049,0.06,18.673,0.082
	c5.626,0.023,10.366,0.049,14.223,0.076c3.859,0.026,6.313,0.046,7.379,0.053c1.102,0.029,2.063,0.052,2.884,0.068
	c0.814,0.017,1.398,0.01,1.738-0.021c0.911-0.08,1.456-0.217,1.648-0.41c0.111-0.086,0.204-0.221,0.281-0.402
	C144.28,1.122,144.221,0.977,144.031,0.865z"/>
</svg>
