<?xml version="1.0" encoding="utf-8"?>
<!DOCTYPE svg PUBLIC "-//W3C//DTD SVG 1.1//EN" "http://www.w3.org/Graphics/SVG/1.1/DTD/svg11.dtd">
<svg version="1.1" id="slash" xmlns="http://www.w3.org/2000/svg" xmlns:xlink="http://www.w3.org/1999/xlink" x="0px" y="0px"
     width="20px" height="38.417px" viewBox="69.667 245.25 20 38.417" enable-background="new 69.667 245.25 20 38.417"
     xml:space="preserve">
<path fill="#EFFFEF" d="M70,282.1c0.1-0.199,0.3-0.5,0.4-0.699c0.1-0.301,0.5-0.9,1-1.9s1.1-2.2,1.8-3.7c0.7-1.5,1.5-3.1,2.4-4.899
    c0.9-1.801,1.7-3.601,2.6-5.4c0.8-1.8,1.7-3.6,2.5-5.4c0.8-1.8,1.5-3.399,2.1-4.8c0.9-2.2,1.7-4,2.3-5.3s1-2.3,1.4-3
    s0.7-1.1,0.9-1.3c0.2-0.2,0.4-0.3,0.6-0.3c0.3,0,0.6,0.199,1,0.5c0.3,0.399,0.5,0.699,0.5,1c0,0.199-0.1,0.399-0.3,0.6
    c-0.2,0.3-0.5,0.8-0.9,1.6c-1.7,3.4-3.3,6.7-4.8,9.9c-1.6,3.3-3,6.3-4.3,9.3c-1.3,2.9-2.5,5.601-3.6,8.101s-2,4.6-2.6,6.3
    c0,0.1-0.1,0.1-0.3,0.2c-0.1,0.1-0.3,0.199-0.4,0.3c-0.2,0.1-0.3,0.2-0.5,0.2c-0.2,0.1-0.3,0.1-0.3,0.1c-0.2,0-0.4-0.1-0.6-0.2
    c-0.2-0.1-0.4-0.2-0.5-0.3c-0.2-0.1-0.4-0.3-0.4-0.6C69.8,282.5,69.9,282.3,70,282.1L70,282.1z"/>
</svg>
