<svg enable-background="new 69.667 245.25 20 38.417" height="38.417" viewBox="69.667 245.25 20 38.417" width="20" xmlns="http://www.w3.org/2000/svg"><path d="m70 282.1c.1-.199.3-.5.4-.699.1-.301.5-.9 1-1.9s1.1-2.2 1.8-3.7 1.5-3.1 2.4-4.899c.9-1.801 1.7-3.601 2.6-5.4.8-1.8 1.7-3.6 2.5-5.4s1.5-3.399 2.1-4.8c.9-2.2 1.7-4 2.3-5.3s1-2.3 1.4-3 .7-1.1.9-1.3.4-.3.6-.3c.3 0 .6.199 1 .5.3.399.5.699.5 1 0 .199-.1.399-.3.6-.2.3-.5.8-.9 1.6-1.7 3.4-3.3 6.7-4.8 9.9-1.6 3.3-3 6.3-4.3 9.3-1.3 2.9-2.5 5.601-3.6 8.101s-2 4.6-2.6 6.3c0 .1-.1.1-.3.2-.1.1-.3.199-.4.3-.2.1-.3.2-.5.2-.2.1-.3.1-.3.1-.2 0-.4-.1-.6-.2s-.4-.2-.5-.3c-.2-.1-.4-.3-.4-.6-.2.097-.1-.103 0-.303z" fill="#efffef"/></svg>