<?xml version="1.0" encoding="utf-8"?>
<!DOCTYPE svg PUBLIC "-//W3C//DTD SVG 1.1//EN" "http://www.w3.org/Graphics/SVG/1.1/DTD/svg11.dtd">
<svg version="1.1" xmlns="http://www.w3.org/2000/svg" xmlns:xlink="http://www.w3.org/1999/xlink" x="0px" y="0px"
	 width="140.318px" height="129.145px" viewBox="147.352 164.795 140.318 129.145"
	 enable-background="new 147.352 164.795 140.318 129.145" xml:space="preserve">
<path fill="#E9FFE5" d="M286.816,287.41c-0.139-0.246-0.281-0.455-0.422-0.67c-0.021-0.081-0.032-0.18-0.063-0.24
	c-3.438-5.615-7.446-12.457-12.013-20.527c-4.572-8.065-9.523-16.969-14.852-26.698c-5.337-9.729-10.894-20.096-16.683-31.102
	c-5.779-10.999-11.608-22.235-17.474-33.714c-1.419-2.69-2.273-4.57-2.575-5.648c-0.299-1.068-1.725-2.819-1.85-2.967
	c-0.603-0.72-1.73-1.071-3.39-1.05c-1.66,0.021-2.859,0.346-3.614,0.976c-0.466,0.393-0.852,1.123-1.15,2.191
	c-0.301,1.078-1.154,2.958-2.574,5.648c-5.865,11.479-11.694,22.715-17.474,33.714c-5.789,11.006-11.346,21.373-16.683,31.102
	c-5.328,9.731-10.279,18.634-14.852,26.698c-4.566,8.072-8.575,14.914-12.013,20.529c-0.119,0.231-1.487,2.377-1.522,2.474
	c-0.19,0.496-0.249,1.146-0.179,1.959c0.077,0.815,0.17,1.416,0.282,1.801c0.192,0.861,0.737,1.474,1.648,1.83
	c0.34,0.134,0.924,0.158,1.738,0.089c0.821-0.072,1.782-0.179,2.884-0.31c1.065-0.027,3.52-0.109,7.379-0.234
	c3.855-0.12,8.597-0.229,14.223-0.34c5.624-0.101,11.852-0.226,18.672-0.366c6.818-0.142,13.72-0.229,20.698-0.253
	c6.967-0.028,13.801-0.028,20.49,0.005c6.691,0.032,12.692,0.133,18.016,0.297c8.321,0.219,14.933,0.362,19.837,0.424
	c4.773,0.063,8.409,0.358,9.103,0.16c0.392-0.086,0.962-0.01,1.716-0.334c0.047-0.021,1.367-0.33,1.742-0.498
	c0.874-0.394,1.427-0.875,1.658-1.465C287.863,290.014,287.629,288.855,286.816,287.41z M241.569,285.748
	c-12.434,0.197-24.196,0.293-35.292,0.275c-11.097-0.008-21.282-0.084-30.553-0.229c-6.28-0.093-11.928-0.231-16.972-0.412
	c0.544-1.075,1.228-2.432,2.062-4.081c1.743-3.441,3.92-7.654,6.522-12.645c2.609-4.982,5.486-10.508,8.632-16.561
	c3.146-6.053,6.379-12.146,9.704-18.282c3.315-6.128,6.593-12.125,9.83-17.979c3.237-5.855,6.203-11.074,8.9-15.667
	c4.182-7.197,7.479-12.93,9.884-17.204c1.249-2.215,2.32-4.169,3.223-5.875c0.988,1.895,2.208,4.132,3.67,6.726
	c2.405,4.274,5.702,10.007,9.884,17.204c2.697,4.593,5.663,9.812,8.9,15.667c3.237,5.854,6.515,11.851,9.83,17.979
	c3.325,6.135,6.558,12.228,9.704,18.278c3.146,6.055,6.022,11.578,8.632,16.563c2.603,4.989,4.779,9.202,6.522,12.645
	c0.545,1.078,1.021,2.021,1.441,2.854C264.397,285.316,252.882,285.563,241.569,285.748z"/>
</svg>
