<?xml version="1.0" encoding="utf-8"?>
<!DOCTYPE svg PUBLIC "-//W3C//DTD SVG 1.1//EN" "http://www.w3.org/Graphics/SVG/1.1/DTD/svg11.dtd">
<svg version="1.1"
	 xmlns="http://www.w3.org/2000/svg" xmlns:xlink="http://www.w3.org/1999/xlink" xmlns:a="http://ns.adobe.com/AdobeSVGViewerExtensions/3.0/"
	 x="0px" y="0px" width="63px" height="63px" viewBox="-0.118 -23.604 63 63" enable-background="new -0.118 -23.604 63 63"
	 xml:space="preserve">
<style>
        path {
            fill: #336633;
        }
        @media (prefers-color-scheme: dark) {
            path {
                fill: #EFFFEF;
            }
        }
    </style>
<path fill="#336633" d="M22.395,2.301c0.891-0.665,1.566-1.167,2.026-1.509c0.459-0.342,0.786-0.56,0.981-0.653
	C25.597,0.046,25.792,0,25.987,0c0.167,0,0.396,0.016,0.688,0.046c0.293,0.031,0.585,0.068,0.877,0.111
	c0.293,0.044,0.544,0.091,0.753,0.14c0.208,0.05,0.313,0.093,0.313,0.13c0,0.137-0.021,0.264-0.063,0.382
	c-0.042,0.118-0.063,0.22-0.063,0.307c0,0.386,0.098,0.879,0.292,1.482c0.194,0.602,0.438,1.242,0.731,1.919
	c0.292,0.677,0.612,1.363,0.96,2.06c0.349,0.697,0.669,1.333,0.961,1.912c0.293,0.577,0.536,2.406,0.731,2.791
	c0.194,0.384,0.292,0.615,0.292,0.689s-0.111,0.144-0.334,0.206c-0.224,0.062-0.48,0.115-0.772,0.158
	c-0.293,0.043-0.564,0.08-0.814,0.111c-0.251,0.031-0.418,0.047-0.502,0.047c-0.25,0-0.425-0.026-0.521-0.075
	c-0.098-0.049-0.174-0.163-0.23-0.336c-0.223-0.845-0.487-3.021-0.793-3.835c-0.307-0.813-0.62-1.603-0.94-2.368
	c-0.32-0.764-0.634-1.497-0.939-2.199c-0.307-0.702-0.557-1.363-0.752-1.984c-1.838,1.255-3.299,2.267-4.386,3.037
	c-1.086,0.771-1.921,1.382-2.506,1.836c-0.584,0.454-0.968,0.792-1.148,1.017c-0.182,0.223-0.286,0.417-0.313,0.578
	c-0.028,0.211-0.141,0.351-0.335,0.419c-0.195,0.068-0.487,0.102-0.877,0.102c-0.391,0-0.668-0.036-0.835-0.111
	c-0.168-0.075-0.362-0.235-0.585-0.485c-0.111-0.112-0.349-0.308-0.71-0.587c-0.362-0.279-0.801-0.6-1.315-0.96
	c-0.517-0.361-1.08-0.747-1.692-1.156S9.948,4.578,9.363,4.192C8.778,3.808,8.242,3.451,7.755,3.121
	c-0.487-0.328-0.87-0.587-1.148-0.773C6.523,2.497,6.383,2.789,6.189,3.224c-0.195,0.435-0.418,0.935-0.669,1.5
	c-0.25,0.566-0.508,1.162-0.772,1.791C4.483,7.142,4.24,7.726,4.017,8.266C3.794,8.807,3.613,9.269,3.475,9.655
	c-0.141,0.385-0.209,0.614-0.209,0.688c0,0.099,0.027,0.199,0.083,0.298c0.056,0.1,0.084,0.198,0.084,0.298
	c0,0.049-0.063,0.096-0.188,0.139c-0.125,0.044-0.327,0.066-0.605,0.066c-0.668,0-1.274-0.032-1.816-0.094
	c-0.543-0.062-0.814-0.198-0.814-0.41c0-0.099,0.068-0.238,0.208-0.419c0.14-0.18,0.334-0.437,0.585-0.772
	c0.139-0.199,0.334-0.513,0.585-0.942C1.637,8.08,1.9,7.589,2.18,7.036C2.457,6.482,2.743,5.9,3.036,5.292
	c0.292-0.609,0.556-1.187,0.793-1.733c0.236-0.546,0.432-1.034,0.585-1.462C4.566,1.667,4.644,1.36,4.644,1.174
	c0-0.211-0.069-0.357-0.209-0.438C4.295,0.655,4.226,0.54,4.226,0.391c0-0.136,0.209-0.226,0.627-0.27
	c0.418-0.043,0.933-0.065,1.545-0.065c0.474,0,0.787,0.021,0.94,0.065C7.49,0.165,7.595,0.254,7.65,0.391
	c0.084,0.187,0.32,0.448,0.711,0.783c0.39,0.335,0.862,0.711,1.42,1.127c0.557,0.416,1.162,0.851,1.816,1.305
	c0.654,0.453,1.288,0.882,1.9,1.285c0.612,0.404,1.17,0.767,1.671,1.09c0.502,0.323,0.877,0.567,1.128,0.728l2.381-1.697
	C20.266,3.869,21.504,2.965,22.395,2.301L22.395,2.301z"/>
<path fill="#336633" d="M52.47,2.301c0.891-0.665,1.565-1.167,2.026-1.509c0.459-0.342,0.785-0.56,0.98-0.653
	C55.672,0.046,55.867,0,56.062,0c0.167,0,0.397,0.016,0.688,0.046c0.293,0.031,0.586,0.068,0.878,0.111
	c0.292,0.044,0.543,0.091,0.752,0.14c0.209,0.05,0.313,0.093,0.313,0.13c0,0.137-0.021,0.264-0.062,0.382
	c-0.042,0.118-0.063,0.22-0.063,0.307c0,0.386,0.097,0.879,0.292,1.482c0.195,0.602,0.439,1.242,0.731,1.919
	c0.293,0.677,0.612,1.363,0.96,2.06c0.349,0.697,0.669,1.333,0.961,1.912c0.293,0.577,0.537,1.058,0.73,1.443
	c0.195,0.385,0.293,0.615,0.293,0.69s-0.111,0.143-0.334,0.205c-0.223,0.062-0.48,0.115-0.772,0.158s-0.563,0.08-0.813,0.111
	c-0.252,0.031-0.418,0.047-0.502,0.047c-0.25,0-0.426-0.025-0.522-0.075c-0.098-0.049-0.174-0.162-0.229-0.335
	c-0.223-0.845-0.488-1.674-0.794-2.488c-0.307-0.813-0.619-1.603-0.939-2.368c-0.32-0.764-0.634-1.497-0.94-2.199
	s-0.557-1.363-0.752-1.984c-1.838,1.255-3.299,2.267-4.385,3.037s-1.922,1.382-2.506,1.836c-0.586,0.454-0.969,0.792-1.148,1.017
	c-0.182,0.223-0.287,0.417-0.314,0.578c-0.027,0.211-0.139,0.351-0.334,0.419s-0.486,0.102-0.876,0.102
	c-0.391,0-0.669-0.036-0.836-0.111s-0.362-0.235-0.585-0.485c-0.111-0.112-0.349-0.308-0.71-0.587
	c-0.362-0.279-0.801-0.6-1.315-0.96c-0.516-0.361-1.08-0.747-1.692-1.156s-1.21-0.808-1.796-1.193
	c-0.584-0.385-1.121-0.742-1.607-1.072c-0.488-0.328-0.871-0.587-1.148-0.773c-0.084,0.149-0.224,0.441-0.418,0.876
	c-0.195,0.435-0.418,0.935-0.668,1.5c-0.251,0.566-0.51,1.162-0.772,1.791c-0.266,0.627-0.509,1.211-0.731,1.752
	s-0.404,1.003-0.543,1.389c-0.14,0.385-0.209,1.961-0.209,2.036c0,0.098,0.028,0.199,0.084,0.298
	c0.055,0.099,0.083,0.199,0.083,0.298c0,0.05-0.063,0.096-0.188,0.139c-0.126,0.045-0.328,0.067-0.605,0.067
	c-0.669,0-1.274-0.032-1.817-0.094c-0.543-0.062-0.814-0.199-0.814-0.41c0-0.099,0.069-0.239,0.209-0.42
	c0.14-0.18,0.334-1.783,0.585-2.119c0.139-0.199,0.334-0.513,0.584-0.942c0.251-0.428,0.516-0.919,0.794-1.472
	c0.278-0.554,0.564-1.136,0.856-1.744c0.292-0.609,0.557-1.187,0.794-1.733c0.236-0.546,0.431-1.034,0.585-1.462
	c0.152-0.429,0.229-0.736,0.229-0.922c0-0.211-0.07-0.357-0.209-0.438c-0.14-0.081-0.209-0.196-0.209-0.345
	c0-0.136,0.209-0.226,0.626-0.27c0.418-0.043,0.933-0.065,1.546-0.065c0.473,0,0.786,0.021,0.939,0.065
	c0.152,0.044,0.258,0.133,0.313,0.27c0.083,0.187,0.319,0.448,0.71,0.783c0.39,0.335,0.863,0.711,1.42,1.127
	c0.557,0.416,1.162,0.851,1.816,1.305c0.654,0.453,1.288,0.882,1.901,1.285c0.612,0.404,1.169,0.767,1.671,1.09
	c0.5,0.323,0.877,0.567,1.128,0.728l2.38-1.697C50.34,3.869,51.578,2.965,52.47,2.301L52.47,2.301z"/>
<path fill="#336633" d="M10.88,11.649c0.644,0.423,1.813,0.843,3.517,1.258c1.694,0.416,4.013,0.78,6.951,1.09
	c2.939,0.312,6.706,0.467,11.295,0.467c1.929,0,4.087-0.051,6.476-0.149c2.388-0.1,4.659-0.287,6.818-0.56
	c2.153-0.272,3.944-0.649,5.37-1.127c1.424-0.479,2.137-1.274,2.137-2.02c0-0.769-43.527-0.646-43.527-0.111
	C9.916,10.721,10.237,11.228,10.88,11.649L10.88,11.649z M62.533,10.591c0,0.82-0.943,1.524-2.822,2.159
	c-1.883,0.633-4.389,1.164-7.508,1.593c-3.123,0.428-6.681,0.754-10.676,0.978c-3.992,0.225-8.15,0.335-12.464,0.335
	c-3.397,0-6.843-0.098-10.329-0.297c-3.491-0.199-6.613-0.494-9.369-0.886c-2.752-0.391-5.002-0.878-6.748-1.463
	C0.872,12.425,0,11.198,0,10.427C0,9.577,62.533,9.055,62.533,10.591z"/>
</svg>
